<svg width="120" height="13" viewBox="0 0 120 13" fill="none" xmlns="http://www.w3.org/2000/svg">
<path d="M0.544 9.708C0.408 9.708 0.34 9.644 0.34 9.516C0.34 9.468 0.344 9.436 0.352 9.42C0.648 8.772 1.452 7.804 2.764 6.516C2.724 6.524 2.688 6.532 2.656 6.54C2.624 6.54 2.6 6.54 2.584 6.54C2.448 6.54 2.38 6.464 2.38 6.312C2.38 6.224 2.448 6.168 2.584 6.144C2.664 6.128 2.748 6.116 2.836 6.108C2.932 6.092 3.052 6.068 3.196 6.036C4.164 5.028 5.096 4.164 5.992 3.444C6.896 2.716 7.76 2.12 8.584 1.656C8.656 1.616 8.72 1.584 8.776 1.56C8.832 1.528 8.88 1.512 8.92 1.512C9.016 1.512 9.064 1.576 9.064 1.704C9.064 1.944 8.824 2.768 8.344 4.176L7.816 5.724C8.024 5.724 8.128 5.788 8.128 5.916C8.128 6.06 7.992 6.132 7.72 6.132C7.568 6.548 7.424 7.008 7.288 7.512C7.16 8.008 7.052 8.52 6.964 9.048C6.932 9.216 6.86 9.3 6.748 9.3C6.612 9.3 6.544 9.228 6.544 9.084C6.544 9.06 6.552 9.008 6.568 8.928C6.584 8.848 6.608 8.744 6.64 8.616C6.736 8.152 6.82 7.768 6.892 7.464C6.972 7.16 7.04 6.904 7.096 6.696C7.16 6.48 7.216 6.284 7.264 6.108C5.792 6.14 4.496 6.248 3.376 6.432C3.056 6.76 2.788 7.04 2.572 7.272C2.356 7.496 2.196 7.664 2.092 7.776C1.612 8.304 1.228 8.784 0.94 9.216C0.916 9.256 0.888 9.308 0.856 9.372C0.816 9.436 0.768 9.512 0.712 9.6C0.68 9.672 0.624 9.708 0.544 9.708ZM3.868 5.94C4.332 5.876 4.856 5.828 5.44 5.796C6.024 5.756 6.68 5.728 7.408 5.712C7.528 5.344 7.648 4.988 7.768 4.644C7.888 4.292 8.004 3.956 8.116 3.636C8.252 3.284 8.432 2.756 8.656 2.052C7.728 2.588 6.864 3.18 6.064 3.828C5.272 4.476 4.54 5.18 3.868 5.94ZM10.7077 9.168C10.2837 9.168 9.95172 9.044 9.71172 8.796C9.47172 8.548 9.35172 8.216 9.35172 7.8C9.35172 7.08 9.69172 6.296 10.3717 5.448C10.7237 5.016 11.0797 4.688 11.4397 4.464C11.8077 4.232 12.1517 4.116 12.4717 4.116C12.7517 4.116 12.9677 4.212 13.1197 4.404C13.2717 4.596 13.3477 4.836 13.3477 5.124C13.3477 5.3 13.3237 5.48 13.2757 5.664C13.2437 5.792 13.1797 5.856 13.0837 5.856C12.9317 5.856 12.8557 5.772 12.8557 5.604C12.8557 5.532 12.8677 5.44 12.8917 5.328C12.9237 5.208 12.9397 5.092 12.9397 4.98C12.9397 4.66 12.7837 4.5 12.4717 4.5C12.3037 4.5 12.0997 4.56 11.8597 4.68C11.6277 4.8 11.3957 4.96 11.1637 5.16C10.9317 5.352 10.7277 5.572 10.5517 5.82C10.0157 6.548 9.74772 7.2 9.74772 7.776C9.74772 8.44 10.0477 8.772 10.6477 8.772C11.0237 8.772 11.3837 8.716 11.7277 8.604C12.0717 8.484 12.4757 8.24 12.9397 7.872C13.2277 7.648 13.4437 7.468 13.5877 7.332C13.7317 7.196 13.8877 7.052 14.0557 6.9C14.1037 6.868 14.1477 6.852 14.1877 6.852C14.2277 6.852 14.2677 6.864 14.3077 6.888C14.3477 6.912 14.3677 6.948 14.3677 6.996C14.3677 7.084 14.2877 7.208 14.1277 7.368C13.9917 7.496 13.8477 7.632 13.6957 7.776C13.5437 7.912 13.3037 8.104 12.9757 8.352C12.6237 8.624 12.2477 8.828 11.8477 8.964C11.4557 9.1 11.0757 9.168 10.7077 9.168ZM13.6968 9.828C13.5448 9.828 13.4688 9.708 13.4688 9.468C13.4688 9.116 13.6648 8.5 14.0568 7.62C14.4568 6.74 15.0488 5.588 15.8328 4.164C15.5288 4.164 15.2408 4.204 14.9688 4.284C14.7048 4.356 14.5648 4.448 14.5488 4.56C14.5408 4.592 14.5208 4.624 14.4888 4.656C14.4648 4.68 14.4248 4.692 14.3688 4.692C14.2408 4.692 14.1768 4.628 14.1768 4.5C14.1768 4.292 14.3408 4.12 14.6688 3.984C14.9968 3.848 15.4568 3.78 16.0488 3.78L16.8768 2.412C16.9328 2.324 16.9928 2.228 17.0568 2.124C17.1208 2.012 17.1928 1.892 17.2728 1.764C17.3528 1.652 17.4448 1.596 17.5488 1.596C17.6128 1.596 17.6608 1.616 17.6928 1.656C17.7248 1.688 17.7408 1.724 17.7408 1.764C17.7408 1.884 17.5648 2.204 17.2128 2.724C16.7728 3.372 16.5368 3.724 16.5048 3.78C16.6248 3.78 16.8048 3.792 17.0448 3.816C17.2848 3.832 17.5688 3.86 17.8968 3.9C18.0168 3.908 18.0768 3.968 18.0768 4.08C18.0768 4.208 18.0048 4.272 17.8608 4.272C17.8048 4.272 17.6928 4.264 17.5248 4.248C17.3568 4.224 17.1768 4.204 16.9848 4.188C16.7928 4.172 16.6288 4.168 16.4928 4.176L16.3128 4.188C14.6888 7.044 13.8808 8.82 13.8888 9.516L13.9008 9.612V9.636C13.9008 9.764 13.8328 9.828 13.6968 9.828ZM19.007 4.272C18.871 4.272 18.803 4.204 18.803 4.068C18.803 4.028 18.831 3.956 18.887 3.852C18.943 3.74 19.007 3.628 19.079 3.516C19.151 3.404 19.207 3.328 19.247 3.288C19.383 3.136 19.487 3.04 19.559 3C19.639 2.96 19.711 2.94 19.775 2.94C19.943 2.94 20.027 3.016 20.027 3.168C20.027 3.224 19.991 3.292 19.919 3.372C19.855 3.444 19.779 3.512 19.691 3.576C19.563 3.656 19.483 3.72 19.451 3.768L19.187 4.14C19.179 4.172 19.159 4.204 19.127 4.236C19.103 4.26 19.063 4.272 19.007 4.272ZM16.967 9.132C16.743 9.132 16.579 9.088 16.475 9C16.379 8.912 16.331 8.78 16.331 8.604C16.331 8.436 16.383 8.208 16.487 7.92C16.591 7.624 16.723 7.308 16.883 6.972C17.051 6.636 17.227 6.316 17.411 6.012C17.595 5.708 17.771 5.46 17.939 5.268C18.115 5.068 18.255 4.968 18.359 4.968C18.503 4.968 18.575 5.032 18.575 5.16C18.575 5.24 18.507 5.392 18.371 5.616C18.235 5.84 18.087 6.072 17.927 6.312C17.863 6.4 17.775 6.52 17.663 6.672C17.551 6.824 17.443 6.968 17.339 7.104C17.235 7.232 17.167 7.32 17.135 7.368C17.055 7.488 16.971 7.684 16.883 7.956C16.787 8.228 16.739 8.436 16.739 8.58C16.739 8.644 16.751 8.692 16.775 8.724C16.807 8.756 16.875 8.772 16.979 8.772C17.179 8.772 17.403 8.708 17.651 8.58C17.899 8.452 18.151 8.292 18.407 8.1C18.663 7.9 18.903 7.696 19.127 7.488C19.359 7.28 19.555 7.1 19.715 6.948C19.747 6.916 19.795 6.9 19.859 6.9C19.979 6.9 20.039 6.948 20.039 7.044C20.039 7.132 19.983 7.232 19.871 7.344C19.655 7.56 19.455 7.752 19.271 7.92C19.087 8.088 18.911 8.236 18.743 8.364C18.479 8.556 18.187 8.732 17.867 8.892C17.547 9.052 17.247 9.132 16.967 9.132ZM20.0527 9.12C19.9567 9.12 19.9087 9.084 19.9087 9.012C19.7807 8.788 19.7167 8.328 19.7167 7.632C19.7167 7.464 19.7287 7.24 19.7527 6.96C19.7767 6.68 19.8087 6.388 19.8487 6.084C19.8887 5.78 19.9327 5.504 19.9807 5.256C20.0287 5 20.0807 4.816 20.1367 4.704C20.1847 4.608 20.2447 4.56 20.3167 4.56C20.4447 4.56 20.5087 4.612 20.5087 4.716C20.5087 4.772 20.5007 4.828 20.4847 4.884C20.4687 4.932 20.4527 4.992 20.4367 5.064C20.3327 5.464 20.2487 5.888 20.1847 6.336C20.1287 6.784 20.1007 7.244 20.1007 7.716C20.1007 7.932 20.1087 8.124 20.1247 8.292C20.1487 8.46 20.1727 8.604 20.1967 8.724C20.4207 8.636 20.6687 8.464 20.9407 8.208C21.2127 7.944 21.4767 7.652 21.7327 7.332C21.9407 7.068 22.1287 6.8 22.2967 6.528C22.4727 6.256 22.6087 6 22.7047 5.76C22.8087 5.52 22.8607 5.324 22.8607 5.172C22.8607 5.068 22.8487 4.996 22.8247 4.956C22.8087 4.916 22.7887 4.884 22.7647 4.86C22.7407 4.836 22.7287 4.792 22.7287 4.728C22.7287 4.608 22.7887 4.548 22.9087 4.548C22.9887 4.548 23.0607 4.608 23.1247 4.728C23.1887 4.848 23.2207 5 23.2207 5.184C23.2207 5.752 22.8247 6.548 22.0327 7.572C21.2167 8.604 20.5567 9.12 20.0527 9.12ZM24.4356 9.216C24.0996 9.216 23.8356 9.1 23.6436 8.868C23.4516 8.636 23.3556 8.352 23.3556 8.016C23.3556 7.44 23.5476 6.848 23.9316 6.24C24.0356 6.072 24.1556 5.908 24.2916 5.748C24.4276 5.58 24.5756 5.42 24.7356 5.268C24.9756 5.036 25.2276 4.844 25.4916 4.692C25.7556 4.54 26.0116 4.464 26.2596 4.464C26.6676 4.464 26.8716 4.656 26.8716 5.04C26.8716 5.52 26.5916 5.956 26.0316 6.348C25.5116 6.7 24.9996 6.876 24.4956 6.876C24.4076 6.876 24.3276 6.872 24.2556 6.864C24.1916 6.848 24.1316 6.832 24.0756 6.816C23.9956 6.968 23.9236 7.164 23.8596 7.404C23.7956 7.644 23.7636 7.852 23.7636 8.028C23.7636 8.556 23.9956 8.82 24.4596 8.82C24.8356 8.82 25.1916 8.756 25.5276 8.628C25.8636 8.492 26.2636 8.24 26.7276 7.872C27.0156 7.648 27.2316 7.468 27.3756 7.332C27.5196 7.196 27.6756 7.052 27.8436 6.9C27.8916 6.868 27.9356 6.852 27.9756 6.852C28.0156 6.852 28.0556 6.864 28.0956 6.888C28.1356 6.912 28.1556 6.948 28.1556 6.996C28.1556 7.084 28.0756 7.208 27.9156 7.368C27.7796 7.496 27.6356 7.632 27.4836 7.776C27.3316 7.912 27.0916 8.104 26.7636 8.352C26.4116 8.624 26.0276 8.836 25.6116 8.988C25.1956 9.14 24.8036 9.216 24.4356 9.216ZM24.4236 6.492C24.6796 6.492 24.9236 6.452 25.1556 6.372C25.3876 6.292 25.6076 6.176 25.8156 6.024C26.2796 5.68 26.5116 5.356 26.5116 5.052C26.5116 4.916 26.4276 4.848 26.2596 4.848C25.9396 4.848 25.5676 5.044 25.1436 5.436C24.9356 5.628 24.7636 5.804 24.6276 5.964C24.4996 6.116 24.3796 6.284 24.2676 6.468C24.3156 6.484 24.3676 6.492 24.4236 6.492ZM32.4245 9.72C32.2885 9.72 32.2205 9.64 32.2205 9.48C32.2205 9.224 32.3605 8.776 32.6405 8.136C32.9205 7.488 33.3405 6.656 33.9005 5.64L36.1805 1.536H35.9525C34.0885 1.536 32.8725 1.764 32.3045 2.22C32.0725 2.404 31.9125 2.668 31.8245 3.012C31.8165 3.132 31.7645 3.192 31.6685 3.192C31.5085 3.192 31.4285 3.12 31.4285 2.976C31.4285 2.576 31.6485 2.216 32.0885 1.896C32.7525 1.4 33.9965 1.152 35.8205 1.152C36.3485 1.152 36.8805 1.164 37.4165 1.188L38.6645 1.272C38.9205 1.288 39.1525 1.304 39.3605 1.32C39.5685 1.328 39.7525 1.332 39.9125 1.332C40.0405 1.332 40.1045 1.396 40.1045 1.524C40.1045 1.652 40.0405 1.716 39.9125 1.716C39.6325 1.716 39.2165 1.692 38.6645 1.644C38.2645 1.604 37.9525 1.58 37.7285 1.572C37.5045 1.564 37.3005 1.56 37.1165 1.56C36.9485 1.56 36.8245 1.56 36.7445 1.56C36.6645 1.552 36.6085 1.548 36.5765 1.548C36.4805 1.796 36.2365 2.272 35.8445 2.976L34.6325 5.136C33.9525 6.352 33.4445 7.32 33.1085 8.04C32.7805 8.76 32.6165 9.224 32.6165 9.432V9.492C32.6165 9.644 32.5525 9.72 32.4245 9.72ZM36.2438 9.12C35.7798 9.12 35.5478 8.9 35.5478 8.46C35.5478 8.172 35.6158 7.864 35.7518 7.536C35.8958 7.2 36.0878 6.876 36.3278 6.564C36.5678 6.244 36.8358 5.956 37.1318 5.7C37.4278 5.436 37.7318 5.228 38.0438 5.076C38.3558 4.916 38.6558 4.836 38.9438 4.836C39.4558 4.836 39.7118 5.088 39.7118 5.592C39.7118 5.92 39.6318 6.084 39.4718 6.084C39.3278 6.084 39.2558 6.016 39.2558 5.88C39.2558 5.824 39.2678 5.768 39.2918 5.712C39.3238 5.648 39.3398 5.58 39.3398 5.508C39.3398 5.284 39.1878 5.172 38.8838 5.172C38.3958 5.172 37.7838 5.544 37.0478 6.288C36.8718 6.472 36.6998 6.688 36.5318 6.936C36.3638 7.184 36.2238 7.436 36.1118 7.692C36.0078 7.94 35.9558 8.176 35.9558 8.4C35.9558 8.616 36.0758 8.724 36.3158 8.724C36.5238 8.724 36.7438 8.66 36.9758 8.532C37.2158 8.404 37.4238 8.272 37.5998 8.136C37.9518 7.872 38.3118 7.512 38.6798 7.056C38.7358 6.992 38.8078 6.908 38.8958 6.804C38.9838 6.7 39.0838 6.584 39.1958 6.456C39.2358 6.416 39.2838 6.396 39.3398 6.396C39.4678 6.396 39.5318 6.46 39.5318 6.588L39.0758 7.272C38.7718 7.72 38.6198 8.088 38.6198 8.376C38.6198 8.584 38.7198 8.688 38.9198 8.688C39.0878 8.688 39.2718 8.644 39.4718 8.556C39.6718 8.468 39.8358 8.38 39.9638 8.292C40.2198 8.124 40.4878 7.916 40.7678 7.668C41.0478 7.412 41.3158 7.156 41.5718 6.9C41.6038 6.868 41.6518 6.852 41.7158 6.852C41.8358 6.852 41.8958 6.9 41.8958 6.996C41.8958 7.084 41.8398 7.184 41.7278 7.296C41.4078 7.616 41.1198 7.892 40.8638 8.124C40.6078 8.348 40.3638 8.532 40.1318 8.676C39.9798 8.764 39.7918 8.856 39.5678 8.952C39.3438 9.048 39.0878 9.096 38.7998 9.096C38.4078 9.096 38.2118 8.888 38.2118 8.472C38.2118 8.312 38.2318 8.18 38.2718 8.076C37.5438 8.772 36.8678 9.12 36.2438 9.12ZM42.377 9.216C42.041 9.216 41.777 9.1 41.585 8.868C41.393 8.636 41.297 8.352 41.297 8.016C41.297 7.44 41.489 6.848 41.873 6.24C41.977 6.072 42.097 5.908 42.233 5.748C42.369 5.58 42.517 5.42 42.677 5.268C42.917 5.036 43.169 4.844 43.433 4.692C43.697 4.54 43.953 4.464 44.201 4.464C44.609 4.464 44.813 4.656 44.813 5.04C44.813 5.52 44.533 5.956 43.973 6.348C43.453 6.7 42.941 6.876 42.437 6.876C42.349 6.876 42.269 6.872 42.197 6.864C42.133 6.848 42.073 6.832 42.017 6.816C41.937 6.968 41.865 7.164 41.801 7.404C41.737 7.644 41.705 7.852 41.705 8.028C41.705 8.556 41.937 8.82 42.401 8.82C42.777 8.82 43.133 8.756 43.469 8.628C43.805 8.492 44.205 8.24 44.669 7.872C44.957 7.648 45.173 7.468 45.317 7.332C45.461 7.196 45.617 7.052 45.785 6.9C45.833 6.868 45.877 6.852 45.917 6.852C45.957 6.852 45.997 6.864 46.037 6.888C46.077 6.912 46.097 6.948 46.097 6.996C46.097 7.084 46.017 7.208 45.857 7.368C45.721 7.496 45.577 7.632 45.425 7.776C45.273 7.912 45.033 8.104 44.705 8.352C44.353 8.624 43.969 8.836 43.553 8.988C43.137 9.14 42.745 9.216 42.377 9.216ZM42.365 6.492C42.621 6.492 42.865 6.452 43.097 6.372C43.329 6.292 43.549 6.176 43.757 6.024C44.221 5.68 44.453 5.356 44.453 5.052C44.453 4.916 44.369 4.848 44.201 4.848C43.881 4.848 43.509 5.044 43.085 5.436C42.877 5.628 42.705 5.804 42.569 5.964C42.441 6.116 42.321 6.284 42.209 6.468C42.257 6.484 42.309 6.492 42.365 6.492ZM48.6718 9.564C48.5918 9.564 48.5318 9.516 48.4918 9.42L48.3238 9.012C48.1478 8.588 47.8958 8.168 47.5678 7.752C47.2398 7.328 46.9158 6.94 46.5958 6.588C46.4198 6.948 46.2638 7.272 46.1278 7.56C45.9918 7.848 45.8678 8.12 45.7558 8.376C45.6438 8.624 45.5238 8.884 45.3958 9.156C45.3638 9.236 45.3078 9.276 45.2278 9.276C45.0918 9.276 45.0238 9.22 45.0238 9.108C45.0238 9.06 45.0398 9 45.0718 8.928C45.1118 8.848 45.1478 8.768 45.1798 8.688C45.3878 8.184 45.6558 7.584 45.9838 6.888C46.3198 6.192 46.6998 5.432 47.1238 4.608C47.9318 3.032 48.5798 1.904 49.0678 1.224C49.1798 1.064 49.2878 0.92 49.3918 0.792C49.5038 0.664 49.5998 0.599999 49.6798 0.599999C49.8238 0.599999 49.8958 0.675999 49.8958 0.827999C49.8958 1.036 49.5918 1.588 48.9838 2.484C48.9358 2.556 48.8518 2.676 48.7318 2.844C48.6118 3.012 48.4838 3.196 48.3478 3.396C48.2118 3.588 48.0838 3.768 47.9638 3.936C47.8518 4.096 47.7758 4.208 47.7358 4.272L46.8718 5.988C48.8078 4.86 49.8478 4.296 49.9918 4.296C50.1198 4.296 50.1838 4.368 50.1838 4.512C50.1838 4.6 50.1358 4.664 50.0398 4.704C49.6878 4.872 49.4078 5.008 49.1998 5.112C48.9998 5.216 48.7958 5.324 48.5878 5.436C48.4118 5.548 48.1838 5.684 47.9038 5.844C47.6318 6.004 47.3078 6.188 46.9318 6.396C47.1238 6.604 47.3318 6.848 47.5558 7.128C47.7798 7.4 47.9878 7.684 48.1798 7.98C48.3798 8.268 48.5438 8.536 48.6718 8.784C48.7998 9.032 48.8638 9.232 48.8638 9.384C48.8638 9.504 48.7998 9.564 48.6718 9.564ZM54.0735 9.24C53.8735 9.24 53.7175 9.16 53.6055 9C53.4935 8.84 53.4375 8.64 53.4375 8.4C53.4375 8.336 53.4415 8.24 53.4495 8.112C53.4575 7.976 53.4655 7.836 53.4735 7.692C53.4895 7.54 53.5015 7.408 53.5095 7.296C53.5175 7.176 53.5255 7.104 53.5335 7.08L53.5215 7.032C53.4495 7.136 53.3495 7.272 53.2215 7.44C53.1015 7.608 52.9735 7.78 52.8375 7.956C52.7095 8.124 52.5935 8.272 52.4895 8.4C52.3215 8.6 52.1375 8.756 51.9375 8.868C51.7375 8.98 51.5535 9.036 51.3855 9.036C51.1855 9.036 51.0175 8.936 50.8815 8.736C50.7455 8.528 50.6775 8.232 50.6775 7.848C50.6775 7.48 50.7375 7.068 50.8575 6.612L50.4855 7.044C50.4295 7.1 50.3815 7.148 50.3415 7.188C50.3015 7.22 50.2615 7.236 50.2215 7.236C50.1815 7.236 50.1415 7.22 50.1015 7.188C50.0695 7.148 50.0535 7.1 50.0535 7.044C50.0535 6.988 50.0735 6.94 50.1135 6.9C50.1935 6.812 50.2855 6.7 50.3895 6.564C50.5015 6.42 50.6295 6.256 50.7735 6.072C50.8935 5.904 51.0935 5.592 51.3735 5.136C51.4215 5.056 51.4855 5.016 51.5655 5.016C51.7015 5.016 51.7695 5.08 51.7695 5.208C51.7695 5.248 51.7495 5.304 51.7095 5.376C51.6695 5.44 51.6135 5.564 51.5415 5.748C51.3975 6.124 51.2855 6.496 51.2055 6.864C51.1255 7.224 51.0855 7.58 51.0855 7.932C51.0855 8.236 51.1055 8.436 51.1455 8.532C51.1855 8.62 51.2455 8.664 51.3255 8.664C51.5815 8.664 51.8895 8.472 52.2495 8.088C52.3535 7.976 52.5095 7.788 52.7175 7.524C52.9255 7.252 53.1415 6.936 53.3655 6.576C53.5895 6.208 53.7655 5.832 53.8935 5.448L54.0735 4.92C54.0975 4.848 54.1495 4.812 54.2295 4.812C54.3735 4.812 54.4455 4.88 54.4455 5.016C54.4455 5.064 54.4015 5.192 54.3135 5.4C54.2255 5.6 54.1375 5.916 54.0495 6.348C53.9935 6.62 53.9415 6.908 53.8935 7.212C53.8535 7.516 53.8335 7.808 53.8335 8.088C53.8335 8.624 53.9215 8.892 54.0975 8.892C54.2415 8.892 54.4255 8.816 54.6495 8.664C54.8735 8.512 55.1095 8.32 55.3575 8.088C55.6055 7.856 55.8295 7.616 56.0295 7.368C56.2135 7.152 56.4015 6.904 56.5935 6.624C56.7855 6.344 56.9455 6.064 57.0735 5.784C57.2095 5.496 57.2775 5.248 57.2775 5.04C57.2775 4.832 57.2215 4.696 57.1095 4.632C57.0935 4.624 56.9855 4.608 56.7855 4.584C56.6735 4.568 56.6175 4.504 56.6175 4.392C56.6175 4.264 56.6815 4.2 56.8095 4.2C57.0655 4.2 57.2695 4.272 57.4215 4.416C57.5815 4.56 57.6615 4.756 57.6615 5.004C57.6615 5.676 57.2135 6.544 56.3175 7.608C55.4055 8.696 54.6575 9.24 54.0735 9.24ZM58.6373 8.94C57.9893 8.94 57.6653 8.576 57.6653 7.848C57.6653 7.512 57.7453 7.16 57.9053 6.792C58.0653 6.424 58.2773 6.084 58.5413 5.772C58.8053 5.452 59.0973 5.192 59.4173 4.992C59.7453 4.792 60.0773 4.692 60.4133 4.692C60.7093 4.692 60.9253 4.804 61.0613 5.028C61.1973 5.252 61.2653 5.5 61.2653 5.772C61.2653 6.132 61.1933 6.5 61.0493 6.876C60.9053 7.244 60.7093 7.584 60.4613 7.896C60.2133 8.208 59.9333 8.46 59.6213 8.652C59.3093 8.844 58.9813 8.94 58.6373 8.94ZM58.6253 8.556C58.6733 8.556 58.7013 8.552 58.7093 8.544C59.0213 8.504 59.3093 8.392 59.5733 8.208C59.8373 8.024 60.0653 7.796 60.2573 7.524C60.4573 7.244 60.6093 6.944 60.7133 6.624C60.8173 6.304 60.8693 5.988 60.8693 5.676C60.8693 5.492 60.8173 5.348 60.7133 5.244C60.6093 5.14 60.4773 5.088 60.3173 5.088C60.0853 5.088 59.8373 5.184 59.5733 5.376C59.3173 5.568 59.0733 5.812 58.8413 6.108C58.6173 6.404 58.4333 6.716 58.2893 7.044C58.1453 7.364 58.0733 7.652 58.0733 7.908C58.0733 8.34 58.2573 8.556 58.6253 8.556ZM61.2414 9.3C61.1134 9.3 61.0494 9.248 61.0494 9.144C61.0494 9.104 61.0654 9.056 61.0974 9C61.1294 8.936 61.1574 8.884 61.1814 8.844L62.2614 6.672C62.7254 5.728 62.9574 5.204 62.9574 5.1C62.9574 4.988 63.0134 4.932 63.1254 4.932C63.2774 4.932 63.3534 5.012 63.3534 5.172C63.3534 5.228 63.3174 5.348 63.2454 5.532C63.1734 5.716 63.0814 5.924 62.9694 6.156C62.7774 6.572 62.6174 6.892 62.4894 7.116C62.7294 6.836 62.9734 6.572 63.2214 6.324C63.4694 6.076 63.7214 5.84 63.9774 5.616C64.7374 4.952 65.3214 4.62 65.7294 4.62C66.0094 4.62 66.1494 4.752 66.1494 5.016C66.1494 5.256 65.9454 5.796 65.5374 6.636C65.1294 7.484 64.9254 8.02 64.9254 8.244C64.9254 8.348 64.9614 8.4 65.0334 8.4C65.0574 8.4 65.0934 8.392 65.1414 8.376C65.1974 8.352 65.2534 8.34 65.3094 8.34C65.4454 8.34 65.5134 8.404 65.5134 8.532C65.5134 8.692 65.3414 8.772 64.9974 8.772C64.8374 8.772 64.7214 8.736 64.6494 8.664C64.5774 8.584 64.5414 8.48 64.5414 8.352C64.5414 7.968 64.7374 7.384 65.1294 6.6C65.5214 5.824 65.7174 5.356 65.7174 5.196C65.7174 5.1 65.6814 5.052 65.6094 5.052C65.4334 5.052 65.1494 5.2 64.7574 5.496C64.3334 5.816 63.9094 6.184 63.4854 6.6C63.0614 7.016 62.6574 7.492 62.2734 8.028L61.4334 9.192C61.3854 9.264 61.3214 9.3 61.2414 9.3ZM70.3069 10.068C70.2429 10.068 70.1629 10.036 70.0669 9.972C69.9789 9.916 69.9109 9.86 69.8629 9.804C69.7669 9.684 69.7029 9.54 69.6709 9.372C69.6389 9.204 69.6229 9.02 69.6229 8.82C69.6229 8.652 69.6269 8.472 69.6349 8.28C69.6509 8.08 69.6749 7.868 69.7069 7.644C69.4989 7.884 69.2629 8.12 68.9989 8.352C68.7429 8.576 68.4789 8.76 68.2069 8.904C67.9429 9.048 67.6909 9.12 67.4509 9.12C66.8509 9.12 66.5509 8.8 66.5509 8.16C66.5509 7.496 66.7829 6.856 67.2469 6.24C67.4789 5.936 67.7429 5.644 68.0389 5.364C68.3349 5.084 68.6469 4.856 68.9749 4.68C69.3029 4.504 69.6269 4.416 69.9469 4.416C70.1869 4.416 70.3989 4.508 70.5829 4.692C70.5989 4.66 70.6189 4.608 70.6429 4.536C70.6749 4.464 70.7189 4.372 70.7749 4.26C70.9669 3.844 71.1789 3.412 71.4109 2.964C71.6429 2.508 71.8509 2.132 72.0349 1.836C72.2429 1.508 72.4389 1.344 72.6229 1.344C72.7509 1.344 72.8149 1.444 72.8149 1.644C72.8149 1.988 72.4909 2.792 71.8429 4.056C71.8029 4.128 71.7309 4.26 71.6269 4.452C71.5309 4.636 71.4149 4.852 71.2789 5.1C71.1509 5.34 71.0189 5.58 70.8829 5.82C70.7469 6.06 70.6229 6.276 70.5109 6.468C70.4069 6.652 70.3309 6.78 70.2829 6.852C70.1949 7.212 70.1269 7.556 70.0789 7.884C70.0309 8.204 70.0069 8.536 70.0069 8.88C70.0069 9.008 70.0109 9.124 70.0189 9.228C70.0349 9.34 70.0669 9.428 70.1149 9.492C70.1549 9.54 70.1989 9.576 70.2469 9.6C70.2949 9.632 70.3509 9.66 70.4149 9.684C70.5109 9.708 70.5589 9.764 70.5589 9.852C70.5589 9.996 70.4749 10.068 70.3069 10.068ZM70.8709 5.052C71.1749 4.532 71.4429 4.048 71.6749 3.6C71.9069 3.144 72.0949 2.716 72.2389 2.316C71.9189 2.732 71.6509 3.172 71.4349 3.636C71.2189 4.1 71.0309 4.572 70.8709 5.052ZM67.3669 8.76C67.5989 8.76 67.8429 8.684 68.0989 8.532C68.3629 8.372 68.6109 8.184 68.8429 7.968C69.0509 7.776 69.2429 7.58 69.4189 7.38C69.5949 7.172 69.7589 6.96 69.9109 6.744C69.9749 6.464 70.0469 6.188 70.1269 5.916C70.2149 5.644 70.3109 5.372 70.4149 5.1C70.2869 4.9 70.1069 4.8 69.8749 4.8C69.6349 4.8 69.3669 4.892 69.0709 5.076C68.7829 5.252 68.5029 5.472 68.2309 5.736C67.9669 6 67.7389 6.252 67.5469 6.492C67.1469 7.028 66.9469 7.596 66.9469 8.196C66.9469 8.572 67.0869 8.76 67.3669 8.76ZM72.4186 8.94C71.7706 8.94 71.4466 8.576 71.4466 7.848C71.4466 7.512 71.5266 7.16 71.6866 6.792C71.8466 6.424 72.0586 6.084 72.3226 5.772C72.5866 5.452 72.8786 5.192 73.1986 4.992C73.5266 4.792 73.8586 4.692 74.1946 4.692C74.4906 4.692 74.7066 4.804 74.8426 5.028C74.9786 5.252 75.0466 5.5 75.0466 5.772C75.0466 6.132 74.9746 6.5 74.8306 6.876C74.6866 7.244 74.4906 7.584 74.2426 7.896C73.9946 8.208 73.7146 8.46 73.4026 8.652C73.0906 8.844 72.7626 8.94 72.4186 8.94ZM72.4066 8.556C72.4546 8.556 72.4826 8.552 72.4906 8.544C72.8026 8.504 73.0906 8.392 73.3546 8.208C73.6186 8.024 73.8466 7.796 74.0386 7.524C74.2386 7.244 74.3906 6.944 74.4946 6.624C74.5986 6.304 74.6506 5.988 74.6506 5.676C74.6506 5.492 74.5986 5.348 74.4946 5.244C74.3906 5.14 74.2586 5.088 74.0986 5.088C73.8666 5.088 73.6186 5.184 73.3546 5.376C73.0986 5.568 72.8546 5.812 72.6226 6.108C72.3986 6.404 72.2146 6.716 72.0706 7.044C71.9266 7.364 71.8546 7.652 71.8546 7.908C71.8546 8.34 72.0386 8.556 72.4066 8.556ZM77.6768 9.708C77.5408 9.708 77.4728 9.644 77.4728 9.516C77.4728 9.468 77.4768 9.436 77.4848 9.42C77.7808 8.772 78.5848 7.804 79.8968 6.516C79.8568 6.524 79.8208 6.532 79.7888 6.54C79.7568 6.54 79.7328 6.54 79.7168 6.54C79.5808 6.54 79.5128 6.464 79.5128 6.312C79.5128 6.224 79.5808 6.168 79.7168 6.144C79.7968 6.128 79.8808 6.116 79.9688 6.108C80.0648 6.092 80.1848 6.068 80.3288 6.036C81.2968 5.028 82.2288 4.164 83.1248 3.444C84.0288 2.716 84.8928 2.12 85.7168 1.656C85.7888 1.616 85.8528 1.584 85.9088 1.56C85.9648 1.528 86.0128 1.512 86.0528 1.512C86.1488 1.512 86.1968 1.576 86.1968 1.704C86.1968 1.944 85.9568 2.768 85.4768 4.176L84.9488 5.724C85.1568 5.724 85.2608 5.788 85.2608 5.916C85.2608 6.06 85.1248 6.132 84.8528 6.132C84.7008 6.548 84.5568 7.008 84.4208 7.512C84.2928 8.008 84.1848 8.52 84.0968 9.048C84.0648 9.216 83.9928 9.3 83.8808 9.3C83.7448 9.3 83.6768 9.228 83.6768 9.084C83.6768 9.06 83.6848 9.008 83.7008 8.928C83.7168 8.848 83.7408 8.744 83.7728 8.616C83.8688 8.152 83.9528 7.768 84.0248 7.464C84.1048 7.16 84.1728 6.904 84.2288 6.696C84.2928 6.48 84.3488 6.284 84.3968 6.108C82.9248 6.14 81.6288 6.248 80.5088 6.432C80.1888 6.76 79.9208 7.04 79.7048 7.272C79.4888 7.496 79.3288 7.664 79.2248 7.776C78.7448 8.304 78.3608 8.784 78.0728 9.216C78.0488 9.256 78.0208 9.308 77.9888 9.372C77.9488 9.436 77.9008 9.512 77.8448 9.6C77.8128 9.672 77.7568 9.708 77.6768 9.708ZM81.0008 5.94C81.4648 5.876 81.9888 5.828 82.5728 5.796C83.1568 5.756 83.8128 5.728 84.5408 5.712C84.6608 5.344 84.7808 4.988 84.9008 4.644C85.0208 4.292 85.1368 3.956 85.2488 3.636C85.3848 3.284 85.5648 2.756 85.7888 2.052C84.8608 2.588 83.9968 3.18 83.1968 3.828C82.4048 4.476 81.6728 5.18 81.0008 5.94ZM87.8405 9.168C87.4165 9.168 87.0845 9.044 86.8445 8.796C86.6045 8.548 86.4845 8.216 86.4845 7.8C86.4845 7.08 86.8245 6.296 87.5045 5.448C87.8565 5.016 88.2125 4.688 88.5725 4.464C88.9405 4.232 89.2845 4.116 89.6045 4.116C89.8845 4.116 90.1005 4.212 90.2525 4.404C90.4045 4.596 90.4805 4.836 90.4805 5.124C90.4805 5.3 90.4565 5.48 90.4085 5.664C90.3765 5.792 90.3125 5.856 90.2165 5.856C90.0645 5.856 89.9885 5.772 89.9885 5.604C89.9885 5.532 90.0005 5.44 90.0245 5.328C90.0565 5.208 90.0725 5.092 90.0725 4.98C90.0725 4.66 89.9165 4.5 89.6045 4.5C89.4365 4.5 89.2325 4.56 88.9925 4.68C88.7605 4.8 88.5285 4.96 88.2965 5.16C88.0645 5.352 87.8605 5.572 87.6845 5.82C87.1485 6.548 86.8805 7.2 86.8805 7.776C86.8805 8.44 87.1805 8.772 87.7805 8.772C88.1565 8.772 88.5165 8.716 88.8605 8.604C89.2045 8.484 89.6085 8.24 90.0725 7.872C90.3605 7.648 90.5765 7.468 90.7205 7.332C90.8645 7.196 91.0205 7.052 91.1885 6.9C91.2365 6.868 91.2805 6.852 91.3205 6.852C91.3605 6.852 91.4005 6.864 91.4405 6.888C91.4805 6.912 91.5005 6.948 91.5005 6.996C91.5005 7.084 91.4205 7.208 91.2605 7.368C91.1245 7.496 90.9805 7.632 90.8285 7.776C90.6765 7.912 90.4365 8.104 90.1085 8.352C89.7565 8.624 89.3805 8.828 88.9805 8.964C88.5885 9.1 88.2085 9.168 87.8405 9.168ZM91.3337 9.12C90.8697 9.12 90.6377 8.9 90.6377 8.46C90.6377 8.172 90.7057 7.864 90.8417 7.536C90.9857 7.2 91.1777 6.876 91.4177 6.564C91.6577 6.244 91.9257 5.956 92.2217 5.7C92.5177 5.436 92.8217 5.228 93.1337 5.076C93.4457 4.916 93.7457 4.836 94.0337 4.836C94.5457 4.836 94.8017 5.088 94.8017 5.592C94.8017 5.92 94.7217 6.084 94.5617 6.084C94.4177 6.084 94.3457 6.016 94.3457 5.88C94.3457 5.824 94.3577 5.768 94.3817 5.712C94.4137 5.648 94.4297 5.58 94.4297 5.508C94.4297 5.284 94.2777 5.172 93.9737 5.172C93.4857 5.172 92.8737 5.544 92.1377 6.288C91.9617 6.472 91.7897 6.688 91.6217 6.936C91.4537 7.184 91.3137 7.436 91.2017 7.692C91.0977 7.94 91.0457 8.176 91.0457 8.4C91.0457 8.616 91.1657 8.724 91.4057 8.724C91.6137 8.724 91.8337 8.66 92.0657 8.532C92.3057 8.404 92.5137 8.272 92.6897 8.136C93.0417 7.872 93.4017 7.512 93.7697 7.056C93.8257 6.992 93.8977 6.908 93.9857 6.804C94.0737 6.7 94.1737 6.584 94.2857 6.456C94.3257 6.416 94.3737 6.396 94.4297 6.396C94.5577 6.396 94.6217 6.46 94.6217 6.588L94.1657 7.272C93.8617 7.72 93.7097 8.088 93.7097 8.376C93.7097 8.584 93.8097 8.688 94.0097 8.688C94.1777 8.688 94.3617 8.644 94.5617 8.556C94.7617 8.468 94.9257 8.38 95.0537 8.292C95.3097 8.124 95.5777 7.916 95.8577 7.668C96.1377 7.412 96.4057 7.156 96.6617 6.9C96.6937 6.868 96.7417 6.852 96.8057 6.852C96.9257 6.852 96.9857 6.9 96.9857 6.996C96.9857 7.084 96.9297 7.184 96.8177 7.296C96.4977 7.616 96.2097 7.892 95.9537 8.124C95.6977 8.348 95.4537 8.532 95.2217 8.676C95.0697 8.764 94.8817 8.856 94.6577 8.952C94.4337 9.048 94.1777 9.096 93.8897 9.096C93.4977 9.096 93.3017 8.888 93.3017 8.472C93.3017 8.312 93.3217 8.18 93.3617 8.076C92.6337 8.772 91.9577 9.12 91.3337 9.12ZM100.143 10.068C100.079 10.068 99.9989 10.036 99.9029 9.972C99.8149 9.916 99.7469 9.86 99.6989 9.804C99.6029 9.684 99.5389 9.54 99.5069 9.372C99.4749 9.204 99.4589 9.02 99.4589 8.82C99.4589 8.652 99.4629 8.472 99.4709 8.28C99.4869 8.08 99.5109 7.868 99.5429 7.644C99.3349 7.884 99.0989 8.12 98.8349 8.352C98.5789 8.576 98.3149 8.76 98.0429 8.904C97.7789 9.048 97.5269 9.12 97.2869 9.12C96.6869 9.12 96.3869 8.8 96.3869 8.16C96.3869 7.496 96.6189 6.856 97.0829 6.24C97.3149 5.936 97.5789 5.644 97.8749 5.364C98.1709 5.084 98.4829 4.856 98.8109 4.68C99.1389 4.504 99.4629 4.416 99.7829 4.416C100.023 4.416 100.235 4.508 100.419 4.692C100.435 4.66 100.455 4.608 100.479 4.536C100.511 4.464 100.555 4.372 100.611 4.26C100.803 3.844 101.015 3.412 101.247 2.964C101.479 2.508 101.687 2.132 101.871 1.836C102.079 1.508 102.275 1.344 102.459 1.344C102.587 1.344 102.651 1.444 102.651 1.644C102.651 1.988 102.327 2.792 101.679 4.056C101.639 4.128 101.567 4.26 101.463 4.452C101.367 4.636 101.251 4.852 101.115 5.1C100.987 5.34 100.855 5.58 100.719 5.82C100.583 6.06 100.459 6.276 100.347 6.468C100.243 6.652 100.167 6.78 100.119 6.852C100.031 7.212 99.9629 7.556 99.9149 7.884C99.8669 8.204 99.8429 8.536 99.8429 8.88C99.8429 9.008 99.8469 9.124 99.8549 9.228C99.8709 9.34 99.9029 9.428 99.9509 9.492C99.9909 9.54 100.035 9.576 100.083 9.6C100.131 9.632 100.187 9.66 100.251 9.684C100.347 9.708 100.395 9.764 100.395 9.852C100.395 9.996 100.311 10.068 100.143 10.068ZM100.707 5.052C101.011 4.532 101.279 4.048 101.511 3.6C101.743 3.144 101.931 2.716 102.075 2.316C101.755 2.732 101.487 3.172 101.271 3.636C101.055 4.1 100.867 4.572 100.707 5.052ZM97.2029 8.76C97.4349 8.76 97.6789 8.684 97.9349 8.532C98.1989 8.372 98.4469 8.184 98.6789 7.968C98.8869 7.776 99.0789 7.58 99.2549 7.38C99.4309 7.172 99.5949 6.96 99.7469 6.744C99.8109 6.464 99.8829 6.188 99.9629 5.916C100.051 5.644 100.147 5.372 100.251 5.1C100.123 4.9 99.9429 4.8 99.7109 4.8C99.4709 4.8 99.2029 4.892 98.9069 5.076C98.6189 5.252 98.3389 5.472 98.0669 5.736C97.8029 6 97.5749 6.252 97.3829 6.492C96.9829 7.028 96.7829 7.596 96.7829 8.196C96.7829 8.572 96.9229 8.76 97.2029 8.76ZM102.483 9.216C102.147 9.216 101.883 9.1 101.691 8.868C101.499 8.636 101.403 8.352 101.403 8.016C101.403 7.44 101.595 6.848 101.979 6.24C102.083 6.072 102.203 5.908 102.339 5.748C102.475 5.58 102.623 5.42 102.783 5.268C103.023 5.036 103.275 4.844 103.539 4.692C103.803 4.54 104.059 4.464 104.307 4.464C104.715 4.464 104.919 4.656 104.919 5.04C104.919 5.52 104.639 5.956 104.079 6.348C103.559 6.7 103.047 6.876 102.543 6.876C102.455 6.876 102.375 6.872 102.303 6.864C102.239 6.848 102.179 6.832 102.123 6.816C102.043 6.968 101.971 7.164 101.907 7.404C101.843 7.644 101.811 7.852 101.811 8.028C101.811 8.556 102.043 8.82 102.507 8.82C102.883 8.82 103.239 8.756 103.575 8.628C103.911 8.492 104.311 8.24 104.775 7.872C105.063 7.648 105.279 7.468 105.423 7.332C105.567 7.196 105.723 7.052 105.891 6.9C105.939 6.868 105.983 6.852 106.023 6.852C106.063 6.852 106.103 6.864 106.143 6.888C106.183 6.912 106.203 6.948 106.203 6.996C106.203 7.084 106.123 7.208 105.963 7.368C105.827 7.496 105.683 7.632 105.531 7.776C105.379 7.912 105.139 8.104 104.811 8.352C104.459 8.624 104.075 8.836 103.659 8.988C103.243 9.14 102.851 9.216 102.483 9.216ZM102.471 6.492C102.727 6.492 102.971 6.452 103.203 6.372C103.435 6.292 103.655 6.176 103.863 6.024C104.327 5.68 104.559 5.356 104.559 5.052C104.559 4.916 104.475 4.848 104.307 4.848C103.987 4.848 103.615 5.044 103.191 5.436C102.983 5.628 102.811 5.804 102.675 5.964C102.547 6.116 102.427 6.284 102.315 6.468C102.363 6.484 102.415 6.492 102.471 6.492ZM105.093 9.408C104.957 9.408 104.889 9.344 104.889 9.216C104.889 9.208 104.937 9.108 105.033 8.916C105.129 8.724 105.265 8.44 105.441 8.064L106.053 6.78C106.301 6.26 106.477 5.848 106.581 5.544C106.693 5.24 106.749 5.044 106.749 4.956C106.749 4.828 106.813 4.764 106.941 4.764C107.069 4.764 107.133 4.828 107.133 4.956C107.133 5.06 107.097 5.224 107.025 5.448C106.961 5.664 106.853 5.944 106.701 6.288L106.089 7.68C107.761 5.568 109.021 4.512 109.869 4.512C110.029 4.512 110.153 4.58 110.241 4.716C110.329 4.844 110.373 4.988 110.373 5.148C110.373 5.532 110.097 6.2 109.545 7.152C109.969 6.72 110.397 6.288 110.829 5.856C111.269 5.416 111.709 4.984 112.149 4.56C112.261 4.456 112.353 4.404 112.425 4.404C112.521 4.404 112.601 4.452 112.665 4.548C112.729 4.636 112.761 4.732 112.761 4.836C112.761 4.916 112.725 5.016 112.653 5.136C112.549 5.312 112.453 5.524 112.365 5.772C112.277 6.012 112.177 6.284 112.065 6.588C111.937 6.932 111.845 7.232 111.789 7.488C111.733 7.744 111.705 7.952 111.705 8.112C111.705 8.312 111.753 8.46 111.849 8.556C111.945 8.644 112.041 8.688 112.137 8.688C112.305 8.688 112.489 8.644 112.689 8.556C112.889 8.468 113.053 8.38 113.181 8.292C113.437 8.124 113.705 7.916 113.985 7.668C114.265 7.412 114.533 7.156 114.789 6.9C114.821 6.868 114.869 6.852 114.933 6.852C115.053 6.852 115.113 6.9 115.113 6.996C115.113 7.084 115.057 7.184 114.945 7.296C114.625 7.616 114.337 7.892 114.081 8.124C113.825 8.348 113.581 8.532 113.349 8.676C113.197 8.764 113.013 8.856 112.797 8.952C112.581 9.048 112.349 9.096 112.101 9.096C111.869 9.096 111.673 9.024 111.513 8.88C111.361 8.736 111.285 8.428 111.285 7.956C111.285 7.772 111.317 7.556 111.381 7.308C111.445 7.052 111.541 6.768 111.669 6.456L112.305 4.944L110.589 6.672C110.389 6.872 110.225 7.04 110.097 7.176C109.969 7.312 109.865 7.424 109.785 7.512C109.633 7.672 109.497 7.828 109.377 7.98C109.265 8.132 109.169 8.264 109.089 8.376C109.033 8.464 108.969 8.508 108.897 8.508C108.761 8.508 108.693 8.452 108.693 8.34C108.693 8.092 108.917 7.52 109.365 6.624C109.813 5.728 110.037 5.192 110.037 5.016C110.037 4.936 109.949 4.896 109.773 4.896C109.061 4.896 107.793 6.06 105.969 8.388C105.817 8.604 105.565 8.928 105.213 9.36C105.189 9.392 105.149 9.408 105.093 9.408ZM114.228 12.972C113.74 12.972 113.496 12.684 113.496 12.108C113.496 11.62 113.6 11.148 113.808 10.692C113.84 10.612 113.892 10.572 113.964 10.572C114.108 10.572 114.18 10.636 114.18 10.764C114.18 10.796 114.168 10.836 114.144 10.884C114.128 10.94 114.108 11 114.084 11.064C114.028 11.216 113.984 11.376 113.952 11.544C113.92 11.712 113.904 11.888 113.904 12.072C113.904 12.28 113.932 12.42 113.988 12.492C114.044 12.564 114.116 12.6 114.204 12.6C114.412 12.6 114.656 12.504 114.936 12.312C115.224 12.12 115.52 11.816 115.824 11.4C116.04 11.104 116.264 10.752 116.496 10.344C116.728 9.936 116.976 9.468 117.24 8.94C117.592 8.244 117.916 7.536 118.212 6.816C118.012 7.072 117.804 7.32 117.588 7.56C117.372 7.8 117.14 8.024 116.892 8.232C116.228 8.8 115.676 9.084 115.236 9.084C114.708 9.084 114.444 8.78 114.444 8.172C114.444 7.956 114.484 7.696 114.564 7.392C114.652 7.088 114.772 6.74 114.924 6.348C114.948 6.284 114.96 6.232 114.96 6.192C114.96 6.144 114.972 6.096 114.996 6.048C115.124 5.768 115.336 5.456 115.632 5.112C115.696 5.04 115.752 5.004 115.8 5.004C115.92 5.004 115.98 5.092 115.98 5.268C115.204 6.412 114.816 7.38 114.816 8.172C114.816 8.508 114.948 8.676 115.212 8.676C115.508 8.676 115.92 8.472 116.448 8.064C116.824 7.776 117.172 7.452 117.492 7.092C117.812 6.724 118.1 6.344 118.356 5.952C118.532 5.688 118.672 5.456 118.776 5.256C118.888 5.048 118.956 4.908 118.98 4.836C119.02 4.716 119.076 4.656 119.148 4.656C119.3 4.656 119.376 4.72 119.376 4.848C119.376 4.912 119.344 5.028 119.28 5.196C119.224 5.356 119.152 5.548 119.064 5.772C118.936 6.1 118.752 6.54 118.512 7.092C118.272 7.644 117.972 8.3 117.612 9.06C117.164 10.004 116.724 10.776 116.292 11.376C115.972 11.832 115.62 12.212 115.236 12.516C114.86 12.82 114.524 12.972 114.228 12.972Z" fill="black"/>
</svg>
