<svg width="265" height="29" viewBox="0 0 265 29" fill="none" xmlns="http://www.w3.org/2000/svg">
<path d="M6.3125 5.4375C6.61458 5.4375 7.59375 5.89583 9.25 6.8125L9.9375 6.875H10.25C10.4896 6.875 10.9479 6.66667 11.625 6.25L11.9375 6.1875L12 6.25V6.375C11.7396 6.65625 11.4688 7.05208 11.1875 7.5625L11.3125 7.875L11.25 7.9375L11.4375 9.125L11.3125 9.25V9.3125C11.5521 9.625 11.6979 9.97917 11.75 10.375C11.8646 10.375 12.0729 10.875 12.375 11.875C12.8333 12.5938 13.0625 13.1354 13.0625 13.5C13.1875 13.6771 13.25 14.1562 13.25 14.9375V15.125C13.5417 15.125 13.9167 14.9375 14.375 14.5625V14.4375L14.3125 14.375V14.3125L14.375 14.25H14.4375L14.625 14.4375V14.8125C14.625 15.3021 14.3125 15.6771 13.6875 15.9375C13.6875 16.1562 13.7917 16.3229 14 16.4375L13.9375 16.75C14.4375 18.0104 14.7917 19.1146 15 20.0625C15.1667 20.3229 15.2917 20.6771 15.375 21.125H15.3125C16.2396 23.375 17.1562 24.7083 18.0625 25.125L19.1875 25.6875V25.8125C18.25 25.5417 16.7917 24.9583 14.8125 24.0625H14.1875C13.3542 24.0625 12.3125 24.3333 11.0625 24.875C10.8958 24.8125 10.8125 24.75 10.8125 24.6875C12.1562 23.8958 12.8646 23.1875 12.9375 22.5625C13.0521 22.5625 13.1562 21.6042 13.25 19.6875L13.0625 18.5625C12.9792 18.5625 12.875 18.1875 12.75 17.4375L12.6875 17.375L12.75 17.0625C12.1875 16.7604 11.8333 16.5312 11.6875 16.375C10.9375 16.5208 10.5625 16.6667 10.5625 16.8125L8.875 16.9375H8.375C8.15625 16.9375 7.96875 17 7.8125 17.125H7.5C7.5 17.25 7.41667 17.375 7.25 17.5L7.3125 17.5625V17.625C7.1875 17.8229 7.04167 18.6771 6.875 20.1875L6.9375 20.375L6.875 21.375V21.875L6.8125 22.25C7.10417 22.9583 7.39583 23.4583 7.6875 23.75L8.5 24.625L8.375 24.75C6.60417 24.0417 4.89583 23.6875 3.25 23.6875H3.125C2.64583 23.6875 1.9375 23.7708 1 23.9375L0.9375 23.875V23.75C2.53125 23.2292 3.61458 22.3958 4.1875 21.25C4.8125 20 5.27083 18.9167 5.5625 18C5.64583 17.9792 5.72917 17.875 5.8125 17.6875L5.75 17.5H5.6875L3.1875 18.625C2.8125 18.8646 2.625 19.1146 2.625 19.375V19.5625C2.79167 19.8542 3.04167 20 3.375 20C3.79167 19.9062 4 19.6979 4 19.375C3.94792 19.1875 3.78125 19.0417 3.5 18.9375C3.32292 18.9792 3.17708 19.0833 3.0625 19.25C3.0625 19.4375 3.1875 19.5625 3.4375 19.625L3.625 19.3125L3.4375 19.1875L3.25 19.3125V19.25L3.4375 19.0625H3.5L3.75 19.3125V19.5625L3.5625 19.75H3.4375C3.0625 19.6667 2.875 19.5625 2.875 19.4375V19.125C2.875 18.8333 3.08333 18.6875 3.5 18.6875C3.79167 18.6875 4.0625 18.8958 4.3125 19.3125V19.5625C4.3125 19.9688 4 20.2188 3.375 20.3125H2.9375C2.35417 20.1875 2.0625 19.9375 2.0625 19.5625V19.5C2.0625 18.7188 2.41667 18.1771 3.125 17.875L6.375 16.25V16.1875L6.3125 16.125L6.75 15.3125C6.75 14.8438 6.91667 14.4271 7.25 14.0625V13.1875C7.25 12.9792 7.39583 12.7917 7.6875 12.625L8.125 11C8.29167 10.5312 8.4375 9.80208 8.5625 8.8125C8.14583 7.61458 7.77083 6.88542 7.4375 6.625C7.4375 6.54167 7.08333 6.22917 6.375 5.6875L6.25 5.5L6.3125 5.4375ZM7.6875 15.75L8.0625 15.875C10.1458 15.6562 11.1875 15.5104 11.1875 15.4375C11.1979 15.3542 11.3438 15.2917 11.625 15.25V15.125H11.4375V14.9375L11.5 14.6875L10.375 10.9375L10.0625 10.3125V9.9375H9.9375C9.875 9.9375 9.70833 10.2917 9.4375 11C9.0625 12.4062 8.75 13.1979 8.5 13.375C8.125 14.125 7.85417 14.9167 7.6875 15.75ZM23.2812 10.0938C24.0833 10.6354 24.7083 11.6354 25.1562 13.0938C25.1562 13.375 25.2188 13.7083 25.3438 14.0938V14.2188L25.1562 14.4062C25.0625 14.3958 24.9583 14.2292 24.8438 13.9062C24.75 13.9062 24.6042 13.6354 24.4062 13.0938C23.8854 12.5625 23.4479 12.25 23.0938 12.1562C21.5833 12.8021 20.8125 13.2396 20.7812 13.4688C19.5729 15.1771 18.9688 16.0729 18.9688 16.1562C18.9688 18 19.3438 19.2708 20.0938 19.9688C20.6771 21 21.5938 21.8542 22.8438 22.5312C23.8646 22.5312 24.5521 22.1146 24.9062 21.2812C25.0729 21.0208 25.1562 20.8125 25.1562 20.6562V20.4688C25 19.6771 24.75 19.2812 24.4062 19.2812L24.1562 19.2188H24.0312L23.7188 19.5312C23.7188 19.8542 23.8229 20.0625 24.0312 20.1562H24.3438L24.5312 20.0312V20.0938L24.2812 20.3438H23.9062C23.6146 20.1458 23.4688 19.8958 23.4688 19.5938V19.5312C23.4688 19.1875 23.6979 18.9583 24.1562 18.8438C24.7188 18.8438 25.0938 19.1146 25.2812 19.6562L25.4688 20.1562L25.4062 20.3438L25.4688 20.7188C25.4688 21.8125 25.0729 22.5833 24.2812 23.0312C23.9062 23.6562 23.3646 24.0938 22.6562 24.3438H22.5938C22.3125 24.3438 21.8542 24.0312 21.2188 23.4062C20.2396 22.9792 19.3646 22.1667 18.5938 20.9688L18.2188 20.2812C17.9688 20.2812 17.8438 20.1354 17.8438 19.8438C17.6875 19.75 17.4167 19.2292 17.0312 18.2812H16.9062V18.0938L17.0312 17.9062V17.8438L16.7188 17.5312L18.2812 14.7812C18.9271 13.8646 19.6354 12.9479 20.4062 12.0312C20.4062 11.7917 20.9896 11.2708 22.1562 10.4688C22.6979 10.2188 23.0729 10.0938 23.2812 10.0938ZM17.7188 14.5938H17.8438V14.6562L17.7188 14.7812V14.5938ZM30.4844 8.92188C30.8802 9.03646 31.0781 9.15104 31.0781 9.26562V9.35938L29.7969 10.5C29.7344 10.5833 29.6719 10.8021 29.6094 11.1562C29.349 11.3229 29.2188 11.6042 29.2188 12L29.3594 13.2344H30.2344C30.7865 13.2344 31.4896 12.8385 32.3438 12.0469L32.4375 12.1406C32.375 12.5052 32.0677 13.0208 31.5156 13.6875C31.2865 14.1458 31.0729 14.474 30.875 14.6719H30.8281L30.7344 14.5781L30.7812 14.3281L30.7344 14.2812H30.4844C29.9844 14.2812 29.5469 14.3646 29.1719 14.5312L29.2656 14.8281V15.4219C29.1927 17.3073 29.1094 18.25 29.0156 18.25V20.0781L29.2656 20.9688V21.5625C29.2656 21.7604 29.3281 21.9583 29.4531 22.1562V22.3125L29.4062 22.5625C29.5 22.5625 29.6667 22.9062 29.9062 23.5938L31.9062 25.7812L33.2656 26.8281C33.3594 26.8281 33.4583 26.875 33.5625 26.9688L33.7031 26.9219L33.9531 26.9688H34.25C35.6146 26.8646 36.2969 26.5365 36.2969 25.9844L36.3438 25.7344V25.1406C36.3438 24.4948 35.9219 24.1302 35.0781 24.0469H34.6406C34.2031 24.0469 33.9583 24.526 33.9062 25.4844V25.5312C34.4167 26.1354 34.8229 26.4531 35.125 26.4844C35.5521 26.401 35.7656 26.1823 35.7656 25.8281V25.7344C35.6198 25.0677 35.3594 24.7344 34.9844 24.7344C34.6719 24.8698 34.474 25.0208 34.3906 25.1875V25.3438C34.3906 25.5104 34.5208 25.6875 34.7812 25.875C35.0729 25.8125 35.2188 25.6979 35.2188 25.5312C35.1354 25.3229 35.0573 25.2083 34.9844 25.1875H34.8281L34.5938 25.3906H34.5469V25.2812C34.7448 25.0208 34.9375 24.8906 35.125 24.8906C35.4167 25.2448 35.5625 25.5104 35.5625 25.6875V25.7344C35.3958 26.026 35.2812 26.1719 35.2188 26.1719H35.125C34.9583 26.1719 34.6146 25.9583 34.0938 25.5312C34.1771 24.875 34.375 24.5469 34.6875 24.5469L35.0781 24.5H35.3281C35.6198 24.5 35.8802 25.0104 36.1094 26.0312C35.7031 26.5625 35.375 26.8281 35.125 26.8281C34.1146 26.2656 33.6094 25.8333 33.6094 25.5312V25.1406C33.7031 24.349 33.8021 23.9323 33.9062 23.8906H35.125C36.0417 23.8906 36.5 24.1094 36.5 24.5469L36.8438 25.9375L36.8906 26.4219C35.724 27.3177 34.776 27.8646 34.0469 28.0625C33.8698 28.1875 33.625 28.25 33.3125 28.25H33.2656C32.9219 27.9271 32.224 27.4531 31.1719 26.8281C30.7448 26.5573 29.9635 25.7812 28.8281 24.5C28.5052 24.3438 28.276 24.0781 28.1406 23.7031V22.8125C28.1406 22.3333 28.0729 21.6354 27.9375 20.7188L28.1875 18.1406L28.0938 17.3438V16.8594L28.1875 16.7031V16.3594C28.1875 15.974 28.1406 15.625 28.0469 15.3125C28.1615 15.3125 28.2552 15.0677 28.3281 14.5781H28.2812C28.2188 14.5781 28.1875 14.5104 28.1875 14.375C27.5938 14.375 26.8958 14.5885 26.0938 15.0156C25.8646 15.3177 25.75 15.5365 25.75 15.6719V15.7656C25.8021 15.901 25.9167 15.9688 26.0938 15.9688C26.2812 15.9167 26.375 15.7969 26.375 15.6094H26.4844V15.7188C26.4844 15.9688 26.3229 16.1146 26 16.1562H25.9531C25.651 16.1146 25.5 15.9688 25.5 15.7188V15.5625C25.5 15.4792 25.9062 14.75 26.7188 13.375C26.9167 13.6146 27.0469 13.7344 27.1094 13.7344L28.2344 13.4375L28.3281 13.0312C28.2552 13.0312 28.2083 12.8177 28.1875 12.3906C28.1146 12.3594 27.9531 11.8802 27.7031 10.9531L27.3594 10.6562H27.2656L27.2031 10.7031H27.1562L26.7188 10.2656V10.2031C27.0729 9.97396 27.5312 9.85938 28.0938 9.85938C29.0417 9.56771 29.8385 9.25521 30.4844 8.92188ZM26.1406 15.3594L26.375 15.4219V15.5156H26.3281L26.2812 15.4688H26.2344C26.1406 15.4688 26.0938 15.5156 26.0938 15.6094L26.0469 15.6719H25.9531V15.6094C26.0156 15.4635 26.0781 15.3802 26.1406 15.3594ZM34.7812 8.28125C35.4688 8.42708 36.3385 8.73438 37.3906 9.20312C37.8802 9.61979 38.125 10.0104 38.125 10.375C38.3125 11.1875 38.4062 11.7812 38.4062 12.1562C38.4062 12.5729 38.1979 12.9479 37.7812 13.2812C37.7812 13.625 36.8958 13.9323 35.125 14.2031H34.7812C34.0104 13.8906 33.4688 13.5521 33.1562 13.1875L32.0781 12.1094L32.2031 12C32.5677 12.2604 33.0885 12.7448 33.7656 13.4531C33.974 13.4531 34.3125 13.6302 34.7812 13.9844L34.8438 13.9375H35.3594C36.0781 13.8542 36.6771 13.6562 37.1562 13.3438C37.375 13.2604 37.6406 12.7552 37.9531 11.8281C37.7552 10.401 37.474 9.6875 37.1094 9.6875C36.4115 9.21875 35.6562 8.98438 34.8438 8.98438C33.9375 8.98438 33.2812 9.64583 32.875 10.9688V11.1875C34.0104 12.6979 34.8177 13.4531 35.2969 13.4531H35.4688C36.3333 13.4531 36.8802 12.8594 37.1094 11.6719V11.1406C36.7135 10.3073 36.1458 9.89062 35.4062 9.89062L34.3281 9.73438L33.7188 10.7031V10.9688C34.4583 12 34.9271 12.5573 35.125 12.6406C35.9583 12.6406 36.375 12.4062 36.375 11.9375C36.4583 11.9375 36.5104 11.776 36.5312 11.4531C35.9583 10.776 35.526 10.4375 35.2344 10.4375C34.7865 10.5521 34.5625 10.6771 34.5625 10.8125C34.5625 11.1771 34.75 11.5885 35.125 12.0469C35.4688 12.0469 35.7135 11.8854 35.8594 11.5625C35.724 11.2708 35.5365 11.0729 35.2969 10.9688H35.125L34.9531 11.3438L35.2344 11.7812C35.4635 11.7292 35.5781 11.6042 35.5781 11.4062L35.4688 11.25L35.5156 11.1875H35.5781L35.6875 11.4062C35.6875 11.7292 35.5365 11.8906 35.2344 11.8906C34.9948 11.8906 34.8281 11.6771 34.7344 11.25V10.9219C34.7344 10.8281 34.9427 10.7188 35.3594 10.5938C35.9219 11.1562 36.2031 11.5677 36.2031 11.8281L35.1875 12.4219H35.125C34.9271 12.4219 34.6094 11.8333 34.1719 10.6562V10.5938L35.125 9.95312H35.2344C36.2448 10.5885 36.7708 11.0208 36.8125 11.25L36.875 11.4062C36.875 12.1979 36.724 12.5938 36.4219 12.5938C36.4219 12.6771 36.2708 12.7656 35.9688 12.8594L35.4688 13.1875H35.2969C34.6719 12.75 34.276 12.3698 34.1094 12.0469C33.6302 11.5469 33.3125 11.2969 33.1562 11.2969C33.4583 10.0781 33.7969 9.46875 34.1719 9.46875L35.9688 9.3125C36.5312 9.73958 36.8125 10.0417 36.8125 10.2188C37.2917 10.6771 37.5573 11.1094 37.6094 11.5156V11.625C37.0052 13.0208 36.401 13.7188 35.7969 13.7188L35.6406 13.7656H35.0156C34.7969 13.7656 34.2135 13.3177 33.2656 12.4219C32.7344 11.8698 32.4688 11.4948 32.4688 11.2969V11.0312C33.1354 9.55208 33.7396 8.74479 34.2812 8.60938C34.2812 8.53646 34.4479 8.42708 34.7812 8.28125ZM38.3438 14.1562L38.4531 14.3125V14.5781C37.7448 15.2865 37.3906 15.6823 37.3906 15.7656C36.974 16.599 36.7656 17.4948 36.7656 18.4531L36.6562 19.0469L37.0469 21.25C37.1094 21.875 37.2604 22.4167 37.5 22.875C37.7604 23.375 38.2865 23.75 39.0781 24C39.2656 24 39.3594 24.0365 39.3594 24.1094L39.2969 24.1562H39.1406L37.0469 23.6719L36.7656 23.7344H36.375C34.8229 23.9323 33.901 24.1458 33.6094 24.375C33.474 24.375 33.3229 24.4844 33.1562 24.7031V24.7969C33.1562 24.8802 33.25 24.9375 33.4375 24.9688C33.5833 24.9271 33.6562 24.8542 33.6562 24.75H33.7656V24.7969C33.6927 25.0156 33.5417 25.125 33.3125 25.125H33.2031C32.9948 25.125 32.8281 25.0156 32.7031 24.7969V24.6406C32.7031 24.401 32.9271 24.151 33.375 23.8906C34.3958 23.099 34.9062 22.4531 34.9062 21.9531C35.0521 21.6719 35.125 21.4219 35.125 21.2031H35.1875L35.125 20.9375L35.1875 18.3438C35.1875 18.0417 35.0365 17.5573 34.7344 16.8906C34.4323 15.8906 33.9792 15.3906 33.375 15.3906L33.2031 15.2188V15.1719L33.375 15.0156H33.6094L34.1094 15.0625C35.6615 14.9271 36.8281 14.7135 37.6094 14.4219C37.849 14.2448 38.0938 14.1562 38.3438 14.1562ZM46.2812 8.5C46.5833 8.73958 47.6458 9.125 49.4688 9.65625C50.9688 9.88542 51.7188 10.0677 51.7188 10.2031V10.4219L51.6094 10.5469H51.25C50.8229 10.5469 50.4792 10.8229 50.2188 11.375L49.9219 11.5938L50.0469 11.75V11.9219C49.4219 12.8177 48.6667 14.2552 47.7812 16.2344C47.75 16.5365 47.5573 17.1823 47.2031 18.1719C46.6302 19.401 46.2448 20.4323 46.0469 21.2656C45.9219 21.474 45.8281 21.7708 45.7656 22.1562C45.5365 23.0312 45.3438 23.6042 45.1875 23.875H44.7188C44.6979 23.2083 44.4271 22.3385 43.9062 21.2656C43.9062 21.1302 43.599 20.3021 42.9844 18.7812L43.0469 18.3906L42.3594 16.2344C42.3594 15.849 42.0469 15.0573 41.4219 13.8594C41.0677 13.5469 40.7031 12.9583 40.3281 12.0938C40.224 12.0938 39.875 11.6875 39.2812 10.875C38.8229 10.8125 38.5938 10.5521 38.5938 10.0938V10.0469L38.6562 9.98438V9.9375L38.7031 9.98438H40.3906C40.9115 9.92188 41.7396 9.58854 42.875 8.98438C43.1771 9.03646 43.3281 9.11458 43.3281 9.21875V9.26562C43.099 9.57812 42.9844 9.96354 42.9844 10.4219L43.1562 10.7656L43.1094 11.0312V11.4219C43.1094 11.6927 43.1667 12.0052 43.2812 12.3594V12.5938L42.9844 14.2969C43.1406 15.026 43.3333 15.7083 43.5625 16.3438L43.5156 16.4062L44.4375 18.4531C44.7083 18.5781 44.8438 18.724 44.8438 18.8906L44.9531 18.7812L45.0156 18.8438H45.125C45.2396 18.8438 45.2969 18.7292 45.2969 18.5C45.6198 17.9062 45.9115 17.4635 46.1719 17.1719L46.75 15.6875L47.0312 14.2969V13.5312C47.1458 13.1875 47.2031 12.724 47.2031 12.1406L47.1562 11.75L47.2031 11.7031V11.6406C46.8698 10.0573 46.5625 9.26562 46.2812 9.26562C46.2812 9.21354 46.2031 9.16146 46.0469 9.10938V8.98438C46.0885 8.66146 46.1667 8.5 46.2812 8.5ZM56.6406 10.5625H56.7031C56.9427 10.5625 57.1771 10.7292 57.4062 11.0625C57.6146 11.1146 58.2188 11.6615 59.2188 12.7031L60.2188 13.9531L60.5156 14.9688V15.1562C60.4635 15.625 60.2292 16.1458 59.8125 16.7188C59.3021 17.8125 58.8333 18.3594 58.4062 18.3594L58.2344 18.4219C57.3594 18.4219 56.0677 17.8958 54.3594 16.8438C54.0885 16.5625 53.9531 16.2708 53.9531 15.9688V15.8438C54.1302 15.1667 54.5573 14.8281 55.2344 14.8281H55.2969C55.6094 14.8281 55.7656 15.0208 55.7656 15.4062C55.6615 15.7812 55.5625 15.9688 55.4688 15.9688H55.125L54.8906 15.7188V15.5938L55 15.4688C55 15.6354 55.0417 15.7188 55.125 15.7188L55.2969 15.5312V15.3438C55.2552 15.2188 55.1406 15.1562 54.9531 15.1562C54.7656 15.1562 54.625 15.3646 54.5312 15.7812C54.5312 16.1042 55.0208 16.4375 56 16.7812C56.4792 17.1458 57.0833 17.375 57.8125 17.4688C58.375 17.4688 58.8646 17.0521 59.2812 16.2188L59.4062 16.0938V15.2188C59.25 14.2188 58.9948 13.526 58.6406 13.1406C57.8073 12.474 57.2969 12.1406 57.1094 12.1406H56.7656C56.5365 12.1406 56.1042 12.4531 55.4688 13.0781C55.0938 13.1615 54.5677 13.9583 53.8906 15.4688L53.3594 16.8438V17.2812L54.1875 19.3594C54.375 20.224 54.8646 20.9531 55.6562 21.5469C56.5104 22.1406 57.0573 22.4375 57.2969 22.4375L58.1719 22.5C58.5573 22.5 58.9271 22.25 59.2812 21.75V21.1719L59.4062 20.9844L58.9375 19.1094C58.9375 19.0156 59.1094 18.9531 59.4531 18.9219C59.8698 19.0781 60.1458 19.2656 60.2812 19.4844V20.4844C60.2812 21.4635 59.9479 22.2396 59.2812 22.8125C58.7083 23.375 58.2812 23.7292 58 23.875H57.875C56.6354 23.5 55.9323 23.1667 55.7656 22.875C55.5052 22.7917 55.25 22.5625 55 22.1875C54.4062 21.4688 54 21.0469 53.7812 20.9219L52.7188 19.1719C52.5 19.1719 52.2448 18.7292 51.9531 17.8438V17.2812L51.7812 16.9062L52.8438 15.0938C52.8854 14.6562 53.3698 13.9427 54.2969 12.9531C54.2969 12.8281 54.8646 12.1979 56 11.0625L56.6406 10.5625ZM54.4219 11.9531H54.4844L54.2969 12.1406V12.0781L54.4219 11.9531ZM86.8438 0.921875H87.0312C87.5208 0.921875 87.8594 1.36458 88.0469 2.25V2.64062C88.0469 3.18229 87.5573 3.86458 86.5781 4.6875C85.8281 5.53125 85.3646 6.22917 85.1875 6.78125L85.125 7.60938C85.125 7.78646 85.2292 7.9375 85.4375 8.0625L85.625 8V8.0625L85.5 8.1875H85.3125C85.1458 8.1875 85 7.86979 84.875 7.23438V6.46875C84.875 6.23958 84.7865 6.08854 84.6094 6.01562H84.2344L81.8125 6.46875H81.4375L81.25 6.34375H81.125C81 6.45833 80.5312 6.58333 79.7188 6.71875L79.5312 7.04688C79.5312 7.35938 79.4688 7.52604 79.3438 7.54688L79.4062 7.75C79.1042 9.29167 78.8906 10.9479 78.7656 12.7188C78.6823 12.7188 78.6406 12.7812 78.6406 12.9062L78.5781 14.7656L78.7031 17.8906H78.6406C79.026 20.0885 79.4896 21.4948 80.0312 22.1094C80.0312 22.2656 80.3073 22.6667 80.8594 23.3125C81.2344 23.8229 81.724 24.0781 82.3281 24.0781V24.2031L81.75 24.3438H81.125C79.1354 23.9167 77.9479 23.7031 77.5625 23.7031C76.3333 23.8698 75.4635 24.0365 74.9531 24.2031H74.8281L74.7031 24.0781C76.3073 22.9844 77.1094 21.9219 77.1094 20.8906L77.1719 19.6094L77.1094 17.25L76.9844 16.875C77.151 16.3229 77.2344 15.4062 77.2344 14.125L77.1719 13.1094L77.3125 12.9844L77.2344 11L77.3125 10.9375V10.875L77.1094 9.59375L77.2344 9.46875V9.40625L77.1094 9.28125L77.1719 9.01562C77.0469 7.48438 76.8385 6.71875 76.5469 6.71875L76.1562 6.65625H75.2656C73.7344 6.65625 72.6146 6.89062 71.9062 7.35938C70.9062 7.78646 70.2292 8.42708 69.875 9.28125L69.7344 9.78125C69.7969 10 69.8646 10.1094 69.9375 10.1094H70.1875L70.3125 9.98438V9.78125L70.25 9.71875V9.65625L70.3125 9.59375H70.375L70.5625 9.78125V10.1719C70.5208 10.2969 70.3958 10.3594 70.1875 10.3594H70C69.6562 10.3594 69.4427 10.125 69.3594 9.65625V9.40625C69.3594 9.11458 69.9323 8.21875 71.0781 6.71875C71.7552 5.5 72.0938 4.69271 72.0938 4.29688L72.2188 3.15625L71.8438 2.1875H71.9062C72.2396 2.5 72.4062 2.86458 72.4062 3.28125V3.53125L72.2188 5.1875C72.3646 5.73958 72.6198 6.01562 72.9844 6.01562L76.4844 5.95312L76.9844 5.82812H77.875C79.1042 5.82812 81.4167 5.46875 84.8125 4.75L85.8281 4.29688C86.8802 3.36979 87.4062 2.85938 87.4062 2.76562L87.5312 2.125C87.4688 1.44792 87.2396 1.10938 86.8438 1.10938C86.5208 1.10938 86.3281 1.19271 86.2656 1.35938V1.48438L86.3906 1.6875H86.2656L86.1406 1.54688V1.23438C86.2865 1.02604 86.5208 0.921875 86.8438 0.921875ZM88.7969 11.3594C89.526 11.3594 90.375 11.651 91.3438 12.2344L92.6719 13.9062C92.6719 13.9896 92.8281 14.2604 93.1406 14.7188C93.1406 15.0521 93.3542 15.6927 93.7812 16.6406C93.8333 16.9115 93.9375 17.1146 94.0938 17.25L94.0469 17.75V18.3125L94.1562 19.1719L94.0469 19.9375L94.0938 20.3438L94.0469 22.0156C94.2448 22.8594 94.4375 23.2812 94.625 23.2812L95.2656 23.8438V24.0938L94.8906 24.4531C94.349 24.3698 94.0521 24.3021 94 24.25H92.8281L91.9219 24.5469C91.4948 24.3385 91.2656 24.1875 91.2344 24.0938V24.0469C91.3385 23.901 91.5885 23.7292 91.9844 23.5312C92.2135 23.4167 92.4219 23.0104 92.6094 22.3125L92.7188 21.9688L92.5156 21.8125C92.0781 22.375 91.5104 22.8125 90.8125 23.125C89.4271 23.6667 88.4896 23.9375 88 23.9375C87.8542 23.9375 87.4844 23.7865 86.8906 23.4844C86.5469 23.1719 86.3021 22.901 86.1562 22.6719L86.2031 22.625V22.5781L85.9375 21.9688C86.0833 21.3125 86.5052 20.6198 87.2031 19.8906C87.2031 19.6927 87.9271 19.0156 89.375 17.8594L91.2344 16.6406C91.3698 16.6406 91.5469 16.5052 91.7656 16.2344H91.8281V16.1875L91.3438 14.2031C90.8438 13.4323 90.4219 12.9583 90.0781 12.7812C89.6198 12.5417 89.3333 12.4219 89.2188 12.4219H89.125C88.9479 12.4219 88.6823 12.6458 88.3281 13.0938C88.2135 13.125 88.1562 13.224 88.1562 13.3906C88.2396 13.3906 88.2969 13.5625 88.3281 13.9062C88.6927 14.4479 89.151 14.7188 89.7031 14.7188L89.9062 15.0625V15.375L89.75 15.5312H89.7031C88.5573 15.5312 87.724 15.0573 87.2031 14.1094C87.1094 13.9635 87.0573 13.6927 87.0469 13.2969V12.8906C87.1823 12.4635 87.4115 12.1094 87.7344 11.8281C88.2135 11.5156 88.5677 11.3594 88.7969 11.3594ZM91.7656 17.4062H91.4531C91.026 17.5312 90.7448 17.7135 90.6094 17.9531C90.5156 17.9531 90.25 18.1927 89.8125 18.6719C89 19.1927 88.4479 19.9167 88.1562 20.8438C88.0521 20.8438 87.9844 21.2031 87.9531 21.9219C88.3281 22.2552 88.5573 22.4219 88.6406 22.4219L88.7969 22.4688L88.8594 22.4219V22.375L89.1719 22.4219L90.4375 21.9219C90.5625 21.9219 90.9688 21.651 91.6562 21.1094L91.8281 20.9062L92.1406 20.5469H92.1875L92.25 20.5938H92.2969C92.2969 20.4062 92.3698 20.2708 92.5156 20.1875L92.6094 19.3281L92.5625 18.9688L92.6094 18.625C92.6094 17.9792 92.4896 17.4375 92.25 17C91.9271 17.0417 91.7656 17.1771 91.7656 17.4062ZM100.172 10.5625H100.234C100.474 10.5625 100.708 10.7292 100.938 11.0625C101.146 11.1146 101.75 11.6615 102.75 12.7031L103.75 13.9531L104.047 14.9688V15.1562C103.995 15.625 103.76 16.1458 103.344 16.7188C102.833 17.8125 102.365 18.3594 101.938 18.3594L101.766 18.4219C100.891 18.4219 99.599 17.8958 97.8906 16.8438C97.6198 16.5625 97.4844 16.2708 97.4844 15.9688V15.8438C97.6615 15.1667 98.0885 14.8281 98.7656 14.8281H98.8281C99.1406 14.8281 99.2969 15.0208 99.2969 15.4062C99.1927 15.7812 99.0938 15.9688 99 15.9688H98.6562L98.4219 15.7188V15.5938L98.5312 15.4688C98.5312 15.6354 98.5729 15.7188 98.6562 15.7188L98.8281 15.5312V15.3438C98.7865 15.2188 98.6719 15.1562 98.4844 15.1562C98.2969 15.1562 98.1562 15.3646 98.0625 15.7812C98.0625 16.1042 98.5521 16.4375 99.5312 16.7812C100.01 17.1458 100.615 17.375 101.344 17.4688C101.906 17.4688 102.396 17.0521 102.812 16.2188L102.938 16.0938V15.2188C102.781 14.2188 102.526 13.526 102.172 13.1406C101.339 12.474 100.828 12.1406 100.641 12.1406H100.297C100.068 12.1406 99.6354 12.4531 99 13.0781C98.625 13.1615 98.099 13.9583 97.4219 15.4688L96.8906 16.8438V17.2812L97.7188 19.3594C97.9062 20.224 98.3958 20.9531 99.1875 21.5469C100.042 22.1406 100.589 22.4375 100.828 22.4375L101.703 22.5C102.089 22.5 102.458 22.25 102.812 21.75V21.1719L102.938 20.9844L102.469 19.1094C102.469 19.0156 102.641 18.9531 102.984 18.9219C103.401 19.0781 103.677 19.2656 103.812 19.4844V20.4844C103.812 21.4635 103.479 22.2396 102.812 22.8125C102.24 23.375 101.812 23.7292 101.531 23.875H101.406C100.167 23.5 99.4635 23.1667 99.2969 22.875C99.0365 22.7917 98.7812 22.5625 98.5312 22.1875C97.9375 21.4688 97.5312 21.0469 97.3125 20.9219L96.25 19.1719C96.0312 19.1719 95.776 18.7292 95.4844 17.8438V17.2812L95.3125 16.9062L96.375 15.0938C96.4167 14.6562 96.901 13.9427 97.8281 12.9531C97.8281 12.8281 98.3958 12.1979 99.5312 11.0625L100.172 10.5625ZM97.9531 11.9531H98.0156L97.8281 12.1406V12.0781L97.9531 11.9531ZM108.438 7.60938C108.604 7.68229 108.708 7.76562 108.75 7.85938L107.766 8.625C107.161 9.39583 106.766 10.0885 106.578 10.7031L106.625 10.9844L106.547 13.4375L106.625 14.2031V14.3281L106.547 14.6406V15L106.625 15.2812L106.547 15.375V15.4062L106.578 15.5625L106.5 16.0469L106.625 16.125H106.672C107.286 15.5833 107.771 15.2083 108.125 15L109.25 13.6406C109.312 13.6406 109.474 13.4271 109.734 13L109.844 12.8438C110.031 12.8438 110.255 12.6146 110.516 12.1562C110.703 11.9062 110.859 11.5573 110.984 11.1094C110.88 10.651 110.672 10.4219 110.359 10.4219V10.3438L110.438 10.2656H110.547C110.943 10.2656 111.573 10.0781 112.438 9.70312C113.146 9.35938 113.812 9.1875 114.438 9.1875L114.594 9.29688C114.594 9.35938 114.401 9.41667 114.016 9.46875C113.526 9.64583 113.068 10.0312 112.641 10.625C112.089 11.0729 111.812 11.3438 111.812 11.4375C111.698 11.5938 111.62 11.7656 111.578 11.9531C111.109 12.2344 110.875 12.5573 110.875 12.9219L110.078 13.7656C110.047 13.8802 109.906 14.0677 109.656 14.3281L108.906 15.25C108.854 15.375 108.526 15.7917 107.922 16.5V16.5312L108.438 17.7812L108.781 18.7344C108.781 18.8281 109.109 19.5156 109.766 20.7969C109.766 20.8802 110.042 21.2917 110.594 22.0312C110.719 22.1979 110.839 22.4792 110.953 22.875C111.141 23.2083 111.385 23.5312 111.688 23.8438C111.885 24.1979 112.057 24.4271 112.203 24.5312C112.443 24.6354 112.562 24.7812 112.562 24.9688C112.708 25.0104 112.995 25.5312 113.422 26.5312L114.016 26.9375C114.38 27.2812 114.771 27.5469 115.188 27.7344C115.198 27.8073 115.37 27.9115 115.703 28.0469L117.031 28.25C117.115 28.25 117.443 27.9271 118.016 27.2812C118.172 27.0729 118.25 26.8229 118.25 26.5312V26.4062C118.25 25.5521 117.766 24.9635 116.797 24.6406L116.531 24.6094C116.292 24.6094 116.078 24.7812 115.891 25.125C115.786 25.1667 115.542 25.4635 115.156 26.0156V26.0938C115.312 26.5729 115.677 26.9844 116.25 27.3281H116.328C116.755 27.3281 117.109 27.0625 117.391 26.5312C117.391 25.9688 117.234 25.6354 116.922 25.5312C116.797 25.4479 116.677 25.4062 116.562 25.4062C116.177 25.4062 115.891 25.6875 115.703 26.25C115.87 26.5417 116.104 26.7448 116.406 26.8594C116.667 26.8594 116.812 26.6979 116.844 26.375C116.792 26 116.635 25.8125 116.375 25.8125L116.094 26.125V26.25C116.198 26.3854 116.328 26.4531 116.484 26.4531L116.609 26.4062V26.25C116.536 26.1146 116.432 26.0469 116.297 26.0469L116.375 25.9688H116.484C116.672 26.1458 116.766 26.3073 116.766 26.4531C116.661 26.6094 116.557 26.6875 116.453 26.6875C116.182 26.5729 115.984 26.4115 115.859 26.2031C115.859 26.099 115.979 25.9167 116.219 25.6562H116.766C116.995 25.9167 117.109 26.2344 117.109 26.6094V26.6875C116.849 26.9792 116.578 27.125 116.297 27.125C116.193 27.125 115.927 26.849 115.5 26.2969V26.2031C115.562 26.0156 115.719 25.7083 115.969 25.2812L117.109 25.1719C117.307 25.1719 117.531 25.6667 117.781 26.6562C116.938 27.4271 116.443 27.8125 116.297 27.8125L115.234 26.8125C115.026 26.4583 114.922 26.2292 114.922 26.125V26.0938C114.922 25.8854 115.193 25.375 115.734 24.5625C115.964 24.375 116.266 24.2812 116.641 24.2812H116.844C117.312 24.2812 117.953 24.7656 118.766 25.7344V25.8125C118.443 27.5729 118.078 28.4531 117.672 28.4531C117.193 28.724 116.682 28.8594 116.141 28.8594L113.578 27.9688L113.031 27.3281C112.719 26.6406 112.406 26.1354 112.094 25.8125C111.875 25.8125 111.625 25.4896 111.344 24.8438C111.344 24.7708 110.781 23.849 109.656 22.0781C108.969 21.3385 108.615 20.8281 108.594 20.5469C108.302 20.1615 108.062 19.7448 107.875 19.2969C107.625 18.9635 107.417 18.6042 107.25 18.2188C107.115 18 107.026 17.8906 106.984 17.8906L106.781 18.1719L106.828 18.375V18.4219L106.578 19.3906V20.4219L106.469 20.9531L106.5 21.5469L106.422 21.625V21.7969C106.422 22.2031 106.609 22.6562 106.984 23.1562C107.245 23.3333 107.375 23.4427 107.375 23.4844V23.5938L107.297 23.7188L107.25 23.6875H106.75C106.229 23.7396 105.635 23.8854 104.969 24.125L104.422 24.3594L104.312 24.5312H104.234L104.156 24.4375V24.25C104.49 23.7812 104.656 23.2552 104.656 22.6719C104.812 22.2865 104.891 21.9271 104.891 21.5938C105.047 21.5938 105.193 21.2969 105.328 20.7031C105.328 20.2969 105.396 19.9219 105.531 19.5781L105.797 17.1719V16.7656L105.562 14.3281L105.609 13.5156C105.609 13.3073 105.542 12.9219 105.406 12.3594V12.2812L105.453 12.2344C105.401 11.6406 105.292 11.224 105.125 10.9844C105.125 10.6406 104.969 10.349 104.656 10.1094L104.344 10.0625L104.156 10.1406L103.953 9.82812V9.78125C103.995 9.72917 104.323 9.63542 104.938 9.5C107.042 8.32292 108.141 7.73438 108.234 7.73438C108.234 7.67188 108.302 7.63021 108.438 7.60938ZM113.75 9.09375C114.854 9.76042 115.917 10.0938 116.938 10.0938C117.365 10.0625 117.823 9.875 118.312 9.53125H118.562C118.719 9.60417 118.823 9.72917 118.875 9.90625C118.042 10.4167 117.625 10.8542 117.625 11.2188L117.375 11.4062L117.438 11.4688V11.5312C117.021 12.2917 116.729 12.9167 116.562 13.4062C116.448 13.4062 116.365 13.6146 116.312 14.0312L116.688 17.3438L116.625 17.9688C116.781 17.9688 116.906 18.3229 117 19.0312C117.052 19.0312 117.094 19.1562 117.125 19.4062L117 19.5312V19.6562C117.271 20.0625 117.542 20.375 117.812 20.5938L117.875 20.5312H117.938C117.938 20.75 118.083 20.9792 118.375 21.2188H118.688C118.719 20.9479 118.865 20.6562 119.125 20.3438L119.188 20.4062C119.854 18.7083 120.188 17.5833 120.188 17.0312C120.24 16.3125 120.448 15.6458 120.812 15.0312C120.885 14.9375 120.948 14.6458 121 14.1562C121.156 14.1562 121.26 13.7396 121.312 12.9062C121.417 12.8646 121.646 12.3438 122 11.3438L122.062 11.2812H122.25C122.594 11.2812 122.802 12.1979 122.875 14.0312C122.958 14.0312 123 14.2812 123 14.7812V14.9062L122.875 15.9688L123.438 18.7812L124.438 20.8438L124.5 21.2812C124.615 21.2812 124.74 20.8229 124.875 19.9062C125.021 17.7917 125.208 16.6667 125.438 16.5312C125.604 16.25 125.729 15.375 125.812 13.9062C125.927 13.9062 126.031 13.6146 126.125 13.0312C125.792 12.2188 125.625 11.5312 125.625 10.9688L124.938 10.4062C124.396 10.2292 124.125 10.1042 124.125 10.0312C124.281 9.66667 124.406 9.47917 124.5 9.46875L127.562 10.0312L127.625 9.96875L127.938 10.0312C128.208 10.0312 128.833 9.88542 129.812 9.59375V9.65625C129.573 9.92708 129.031 10.8646 128.188 12.4688C127.969 12.6562 127.719 13.2604 127.438 14.2812C127.281 14.5208 127.01 15.3958 126.625 16.9062C126.208 18.0208 126 18.6875 126 18.9062V20.8438C126.083 20.8958 126.146 21.2292 126.188 21.8438L125.812 23.1562L125.875 23.4688C125.875 23.8646 125.708 24.1979 125.375 24.4688H125.312C125.031 24.2188 124.719 23.6562 124.375 22.7812C124.302 22.7812 124.031 22.2396 123.562 21.1562C123.344 21.1562 123.177 20.9062 123.062 20.4062C122.312 18.6979 121.938 17.6771 121.938 17.3438V17.2188L121.625 17.1562V17.2188L121.062 18.0938C120.969 18.2708 120.906 18.7292 120.875 19.4688C120.5 19.4688 120.312 19.6771 120.312 20.0938C120.177 20.75 119.885 21.4583 119.438 22.2188C119.188 22.5417 119.021 22.9375 118.938 23.4062L118.5 23.7812H118.375C117.812 23.1146 117.396 22.3854 117.125 21.5938C116.802 21.1667 116.344 20.3125 115.75 19.0312V18.3438C115.75 17.8542 115.604 17.3958 115.312 16.9688V16.8438H115.25L115.312 16.2188V14.9062L115 14.2188L115.062 12.5312C115.062 11.9375 114.833 11.2292 114.375 10.4062C114.375 10.2188 114.062 9.88542 113.438 9.40625L113.75 9.09375ZM135 10.4375H135.188L136.375 10.7812C136.854 10.9479 137.297 11.2188 137.703 11.5938L139.344 12.7344C139.448 12.8281 139.583 13.2604 139.75 14.0312C140.229 15.4271 140.469 16.4583 140.469 17.125V18.2188C140.385 18.3021 140.318 18.5677 140.266 19.0156L140.141 19.2969L140.203 19.3594L139.609 20.1094V20.1719L139.75 20.375C137.938 22.1667 136.859 23.0885 136.516 23.1406L133.75 24.4844C133.323 24.4844 132.792 23.9479 132.156 22.875C132 22.4792 131.672 22.0521 131.172 21.5938C131.172 21.4479 130.953 20.9271 130.516 20.0312C130.391 19.3021 130.193 18.7396 129.922 18.3438C129.526 17.7188 129.328 17.0885 129.328 16.4531L129.062 16.125C129.062 15.8646 129.328 15.5938 129.859 15.3125C129.859 15.1771 129.922 15.1094 130.047 15.1094C130.193 14.8073 130.547 14.4896 131.109 14.1562C131.661 13.375 132.078 12.8594 132.359 12.6094C133.568 11.5156 134.448 10.7917 135 10.4375ZM135.453 11.5938C134.682 12.0521 133.719 12.9062 132.562 14.1562C132.448 14.1562 131.964 14.6979 131.109 15.7812L131.047 16.125C131.349 18.6042 131.719 20.1562 132.156 20.7812L133.875 23H134.406C135.115 22.4688 135.552 22.2031 135.719 22.2031C136.208 22.0469 136.891 21.2552 137.766 19.8281L137.969 19.4219L137.891 19.2188C138.078 19.2188 138.234 18.7708 138.359 17.875C138.672 17.4688 138.87 16.9531 138.953 16.3281L138.234 14.8281C137.911 14.0156 137.536 13.3646 137.109 12.875C136.401 12.3229 136.047 11.9635 136.047 11.7969L135.859 11.5938L135.531 11.6562L135.453 11.5938ZM145.625 10.0312L145.734 10.1562C145.13 10.4896 144.724 10.9688 144.516 11.5938C144.37 12.0625 144.26 13.0573 144.188 14.5781C145.208 13.5365 146.068 12.9792 146.766 12.9062C146.766 12.8438 146.896 12.8073 147.156 12.7969H147.266C147.786 12.7969 148.427 13.026 149.188 13.4844C149.333 14.1719 149.516 14.75 149.734 15.2188C149.911 15.6875 150.135 16.5469 150.406 17.7969C150.469 17.8073 150.615 18.2135 150.844 19.0156L150.953 19.9844L150.844 20.3906L150.781 21.5312C150.896 22.1354 151.099 22.8073 151.391 23.5469C151.547 24.0885 152.078 24.6094 152.984 25.1094L152.875 25.2188H152.766L150.453 24.2969C149.599 24.2969 148.812 24.6406 148.094 25.3281L147.875 24.9844C148.5 24.2656 148.812 23.7292 148.812 23.375L149.078 21.8281V21.7656L148.969 21.5938C149.083 20.9583 149.141 20.3854 149.141 19.875V19.8125C149.026 19.8125 148.932 18.9896 148.859 17.3438C148.714 17.3438 148.641 16.8229 148.641 15.7812C148.536 15.7812 148.464 15.5938 148.422 15.2188C148.37 15.2188 148.312 15.0833 148.25 14.8125L148.141 14.5781L147.875 14.4688H147.109L146.438 14.3438C145.823 14.6354 145.219 15.1719 144.625 15.9531C144.26 16.2969 144.078 16.7969 144.078 17.4531H144.031L144.078 17.5156C143.891 18.849 143.797 19.8073 143.797 20.3906C143.932 21.1927 144.229 22.1719 144.688 23.3281L145.344 23.9531C145.302 24.0677 145.193 24.125 145.016 24.125L144.844 24.0625L144.797 24.125H144.734C144.13 23.9375 143.141 23.8021 141.766 23.7188C141.63 23.8125 141.359 23.8698 140.953 23.8906L140.891 23.8438V23.7812C141.526 22.8438 141.948 21.8646 142.156 20.8438L142.547 19.1875C142.547 18.6771 142.599 18.1979 142.703 17.75C142.599 17.75 142.547 17.6875 142.547 17.5625L142.875 16.9375L142.922 16.25L142.875 15.7344L142.922 13.7188C142.922 12.9896 142.776 12.3385 142.484 11.7656V11.7031C142.901 11.6302 143.396 11.3438 143.969 10.8438C144.812 10.3021 145.365 10.0312 145.625 10.0312ZM158.156 7.5625C158.427 7.5625 159.005 7.76562 159.891 8.17188L160.609 8.32812H161.781L163.406 8.26562L163.516 8.42188V8.53125C163.516 8.59375 163.312 8.69792 162.906 8.84375C162.906 8.92708 162.703 9.02604 162.297 9.14062L161.469 10.4844L161.531 10.6875L161.422 10.9844V11.1406L161.266 13L161.172 13.0938V13.5L161.312 15.4062L161.578 15.6094V15.7188C161.578 15.7812 161.49 15.8125 161.312 15.8125C161.083 16.3646 160.969 17.151 160.969 18.1719L161.016 19.1406L160.812 21.4531C161.083 22.6198 161.302 23.2031 161.469 23.2031L161.734 23.5156V23.6094L161.625 23.7188H161.172L160.547 23.875H159.891C159.786 23.75 159.479 23.6615 158.969 23.6094L158.719 23.5625L158.656 23.5156V23.4531C159.24 22.8594 159.531 22.2135 159.531 21.5156L159.688 20.9375L159.641 20.0781L159.688 19.7656L159.641 19.3594L159.781 18.0781L159.578 17.0938L159.422 16.8906L159.375 16.8438H159.328L159.531 16.5312V16.1719L159.422 16.0781H158.969C156.833 16.3594 155.693 16.6823 155.547 17.0469C155.026 17.2135 154.479 17.5365 153.906 18.0156C153.74 18.2031 153.656 18.6823 153.656 19.4531C153.656 19.6615 153.792 19.849 154.062 20.0156C154.406 20.5573 154.818 20.9531 155.297 21.2031C156.682 21.9219 157.448 22.2812 157.594 22.2812H158C158.719 22.2812 159.078 22.0052 159.078 21.4531V21.4062C158.911 21.1667 158.724 21.0469 158.516 21.0469H158.453C158.276 21.1302 158.141 21.2656 158.047 21.4531V21.5156L158.25 21.7656H158.359C158.432 21.7448 158.5 21.6615 158.562 21.5156L158.406 21.4531V21.3594H158.453L158.656 21.5625C158.656 21.75 158.542 21.9219 158.312 22.0781C157.948 22.0781 157.74 21.8385 157.688 21.3594C157.688 20.9844 157.995 20.7969 158.609 20.7969C158.953 20.7969 159.208 21.0521 159.375 21.5625C159.375 21.9896 159.224 22.2812 158.922 22.4375C158.318 23.0104 157.755 23.2969 157.234 23.2969C155.922 22.7865 155.188 22.5312 155.031 22.5312C154.219 22.2812 153.609 21.7865 153.203 21.0469C152.964 21.0469 152.656 20.6354 152.281 19.8125L152.125 18.7969C152.125 17.849 152.365 17.2969 152.844 17.1406C152.979 16.7656 153.182 16.5781 153.453 16.5781C153.745 16.3385 154.292 16 155.094 15.5625C155.552 15.3854 156.297 15.2448 157.328 15.1406C158.797 15.0052 159.531 14.8698 159.531 14.7344H159.641V14.6875C159.641 13.9271 159.604 13.4323 159.531 13.2031L159.578 13L159.531 12.7812C159.635 12.7812 159.688 12.5938 159.688 12.2188V12.0625C159.625 10.9375 159.557 10.375 159.484 10.375L159.531 10.2188C159.531 9.97917 159.38 9.64062 159.078 9.20312C158.661 8.27604 158.266 7.8125 157.891 7.8125L157.75 7.60938L157.797 7.5625H158.156ZM160.203 7.8125H160.344V7.92188H160.203V7.8125ZM169 10.4375H169.188L170.375 10.7812C170.854 10.9479 171.297 11.2188 171.703 11.5938L173.344 12.7344C173.448 12.8281 173.583 13.2604 173.75 14.0312C174.229 15.4271 174.469 16.4583 174.469 17.125V18.2188C174.385 18.3021 174.318 18.5677 174.266 19.0156L174.141 19.2969L174.203 19.3594L173.609 20.1094V20.1719L173.75 20.375C171.938 22.1667 170.859 23.0885 170.516 23.1406L167.75 24.4844C167.323 24.4844 166.792 23.9479 166.156 22.875C166 22.4792 165.672 22.0521 165.172 21.5938C165.172 21.4479 164.953 20.9271 164.516 20.0312C164.391 19.3021 164.193 18.7396 163.922 18.3438C163.526 17.7188 163.328 17.0885 163.328 16.4531L163.062 16.125C163.062 15.8646 163.328 15.5938 163.859 15.3125C163.859 15.1771 163.922 15.1094 164.047 15.1094C164.193 14.8073 164.547 14.4896 165.109 14.1562C165.661 13.375 166.078 12.8594 166.359 12.6094C167.568 11.5156 168.448 10.7917 169 10.4375ZM169.453 11.5938C168.682 12.0521 167.719 12.9062 166.562 14.1562C166.448 14.1562 165.964 14.6979 165.109 15.7812L165.047 16.125C165.349 18.6042 165.719 20.1562 166.156 20.7812L167.875 23H168.406C169.115 22.4688 169.552 22.2031 169.719 22.2031C170.208 22.0469 170.891 21.2552 171.766 19.8281L171.969 19.4219L171.891 19.2188C172.078 19.2188 172.234 18.7708 172.359 17.875C172.672 17.4688 172.87 16.9531 172.953 16.3281L172.234 14.8281C171.911 14.0156 171.536 13.3646 171.109 12.875C170.401 12.3229 170.047 11.9635 170.047 11.7969L169.859 11.5938L169.531 11.6562L169.453 11.5938ZM187.812 5.4375C188.115 5.4375 189.094 5.89583 190.75 6.8125L191.438 6.875H191.75C191.99 6.875 192.448 6.66667 193.125 6.25L193.438 6.1875L193.5 6.25V6.375C193.24 6.65625 192.969 7.05208 192.688 7.5625L192.812 7.875L192.75 7.9375L192.938 9.125L192.812 9.25V9.3125C193.052 9.625 193.198 9.97917 193.25 10.375C193.365 10.375 193.573 10.875 193.875 11.875C194.333 12.5938 194.562 13.1354 194.562 13.5C194.688 13.6771 194.75 14.1562 194.75 14.9375V15.125C195.042 15.125 195.417 14.9375 195.875 14.5625V14.4375L195.812 14.375V14.3125L195.875 14.25H195.938L196.125 14.4375V14.8125C196.125 15.3021 195.812 15.6771 195.188 15.9375C195.188 16.1562 195.292 16.3229 195.5 16.4375L195.438 16.75C195.938 18.0104 196.292 19.1146 196.5 20.0625C196.667 20.3229 196.792 20.6771 196.875 21.125H196.812C197.74 23.375 198.656 24.7083 199.562 25.125L200.688 25.6875V25.8125C199.75 25.5417 198.292 24.9583 196.312 24.0625H195.688C194.854 24.0625 193.812 24.3333 192.562 24.875C192.396 24.8125 192.312 24.75 192.312 24.6875C193.656 23.8958 194.365 23.1875 194.438 22.5625C194.552 22.5625 194.656 21.6042 194.75 19.6875L194.562 18.5625C194.479 18.5625 194.375 18.1875 194.25 17.4375L194.188 17.375L194.25 17.0625C193.688 16.7604 193.333 16.5312 193.188 16.375C192.438 16.5208 192.062 16.6667 192.062 16.8125L190.375 16.9375H189.875C189.656 16.9375 189.469 17 189.312 17.125H189C189 17.25 188.917 17.375 188.75 17.5L188.812 17.5625V17.625C188.688 17.8229 188.542 18.6771 188.375 20.1875L188.438 20.375L188.375 21.375V21.875L188.312 22.25C188.604 22.9583 188.896 23.4583 189.188 23.75L190 24.625L189.875 24.75C188.104 24.0417 186.396 23.6875 184.75 23.6875H184.625C184.146 23.6875 183.438 23.7708 182.5 23.9375L182.438 23.875V23.75C184.031 23.2292 185.115 22.3958 185.688 21.25C186.312 20 186.771 18.9167 187.062 18C187.146 17.9792 187.229 17.875 187.312 17.6875L187.25 17.5H187.188L184.688 18.625C184.312 18.8646 184.125 19.1146 184.125 19.375V19.5625C184.292 19.8542 184.542 20 184.875 20C185.292 19.9062 185.5 19.6979 185.5 19.375C185.448 19.1875 185.281 19.0417 185 18.9375C184.823 18.9792 184.677 19.0833 184.562 19.25C184.562 19.4375 184.688 19.5625 184.938 19.625L185.125 19.3125L184.938 19.1875L184.75 19.3125V19.25L184.938 19.0625H185L185.25 19.3125V19.5625L185.062 19.75H184.938C184.562 19.6667 184.375 19.5625 184.375 19.4375V19.125C184.375 18.8333 184.583 18.6875 185 18.6875C185.292 18.6875 185.562 18.8958 185.812 19.3125V19.5625C185.812 19.9688 185.5 20.2188 184.875 20.3125H184.438C183.854 20.1875 183.562 19.9375 183.562 19.5625V19.5C183.562 18.7188 183.917 18.1771 184.625 17.875L187.875 16.25V16.1875L187.812 16.125L188.25 15.3125C188.25 14.8438 188.417 14.4271 188.75 14.0625V13.1875C188.75 12.9792 188.896 12.7917 189.188 12.625L189.625 11C189.792 10.5312 189.938 9.80208 190.062 8.8125C189.646 7.61458 189.271 6.88542 188.938 6.625C188.938 6.54167 188.583 6.22917 187.875 5.6875L187.75 5.5L187.812 5.4375ZM189.188 15.75L189.562 15.875C191.646 15.6562 192.688 15.5104 192.688 15.4375C192.698 15.3542 192.844 15.2917 193.125 15.25V15.125H192.938V14.9375L193 14.6875L191.875 10.9375L191.562 10.3125V9.9375H191.438C191.375 9.9375 191.208 10.2917 190.938 11C190.562 12.4062 190.25 13.1979 190 13.375C189.625 14.125 189.354 14.9167 189.188 15.75ZM204.781 10.0938C205.583 10.6354 206.208 11.6354 206.656 13.0938C206.656 13.375 206.719 13.7083 206.844 14.0938V14.2188L206.656 14.4062C206.562 14.3958 206.458 14.2292 206.344 13.9062C206.25 13.9062 206.104 13.6354 205.906 13.0938C205.385 12.5625 204.948 12.25 204.594 12.1562C203.083 12.8021 202.312 13.2396 202.281 13.4688C201.073 15.1771 200.469 16.0729 200.469 16.1562C200.469 18 200.844 19.2708 201.594 19.9688C202.177 21 203.094 21.8542 204.344 22.5312C205.365 22.5312 206.052 22.1146 206.406 21.2812C206.573 21.0208 206.656 20.8125 206.656 20.6562V20.4688C206.5 19.6771 206.25 19.2812 205.906 19.2812L205.656 19.2188H205.531L205.219 19.5312C205.219 19.8542 205.323 20.0625 205.531 20.1562H205.844L206.031 20.0312V20.0938L205.781 20.3438H205.406C205.115 20.1458 204.969 19.8958 204.969 19.5938V19.5312C204.969 19.1875 205.198 18.9583 205.656 18.8438C206.219 18.8438 206.594 19.1146 206.781 19.6562L206.969 20.1562L206.906 20.3438L206.969 20.7188C206.969 21.8125 206.573 22.5833 205.781 23.0312C205.406 23.6562 204.865 24.0938 204.156 24.3438H204.094C203.812 24.3438 203.354 24.0312 202.719 23.4062C201.74 22.9792 200.865 22.1667 200.094 20.9688L199.719 20.2812C199.469 20.2812 199.344 20.1354 199.344 19.8438C199.188 19.75 198.917 19.2292 198.531 18.2812H198.406V18.0938L198.531 17.9062V17.8438L198.219 17.5312L199.781 14.7812C200.427 13.8646 201.135 12.9479 201.906 12.0312C201.906 11.7917 202.49 11.2708 203.656 10.4688C204.198 10.2188 204.573 10.0938 204.781 10.0938ZM199.219 14.5938H199.344V14.6562L199.219 14.7812V14.5938ZM210.453 11.3594C211.182 11.3594 212.031 11.651 213 12.2344L214.328 13.9062C214.328 13.9896 214.484 14.2604 214.797 14.7188C214.797 15.0521 215.01 15.6927 215.438 16.6406C215.49 16.9115 215.594 17.1146 215.75 17.25L215.703 17.75V18.3125L215.812 19.1719L215.703 19.9375L215.75 20.3438L215.703 22.0156C215.901 22.8594 216.094 23.2812 216.281 23.2812L216.922 23.8438V24.0938L216.547 24.4531C216.005 24.3698 215.708 24.3021 215.656 24.25H214.484L213.578 24.5469C213.151 24.3385 212.922 24.1875 212.891 24.0938V24.0469C212.995 23.901 213.245 23.7292 213.641 23.5312C213.87 23.4167 214.078 23.0104 214.266 22.3125L214.375 21.9688L214.172 21.8125C213.734 22.375 213.167 22.8125 212.469 23.125C211.083 23.6667 210.146 23.9375 209.656 23.9375C209.51 23.9375 209.141 23.7865 208.547 23.4844C208.203 23.1719 207.958 22.901 207.812 22.6719L207.859 22.625V22.5781L207.594 21.9688C207.74 21.3125 208.161 20.6198 208.859 19.8906C208.859 19.6927 209.583 19.0156 211.031 17.8594L212.891 16.6406C213.026 16.6406 213.203 16.5052 213.422 16.2344H213.484V16.1875L213 14.2031C212.5 13.4323 212.078 12.9583 211.734 12.7812C211.276 12.5417 210.99 12.4219 210.875 12.4219H210.781C210.604 12.4219 210.339 12.6458 209.984 13.0938C209.87 13.125 209.812 13.224 209.812 13.3906C209.896 13.3906 209.953 13.5625 209.984 13.9062C210.349 14.4479 210.807 14.7188 211.359 14.7188L211.562 15.0625V15.375L211.406 15.5312H211.359C210.214 15.5312 209.38 15.0573 208.859 14.1094C208.766 13.9635 208.714 13.6927 208.703 13.2969V12.8906C208.839 12.4635 209.068 12.1094 209.391 11.8281C209.87 11.5156 210.224 11.3594 210.453 11.3594ZM213.422 17.4062H213.109C212.682 17.5312 212.401 17.7135 212.266 17.9531C212.172 17.9531 211.906 18.1927 211.469 18.6719C210.656 19.1927 210.104 19.9167 209.812 20.8438C209.708 20.8438 209.641 21.2031 209.609 21.9219C209.984 22.2552 210.214 22.4219 210.297 22.4219L210.453 22.4688L210.516 22.4219V22.375L210.828 22.4219L212.094 21.9219C212.219 21.9219 212.625 21.651 213.312 21.1094L213.484 20.9062L213.797 20.5469H213.844L213.906 20.5938H213.953C213.953 20.4062 214.026 20.2708 214.172 20.1875L214.266 19.3281L214.219 18.9688L214.266 18.625C214.266 17.9792 214.146 17.4375 213.906 17C213.583 17.0417 213.422 17.1771 213.422 17.4062ZM223 7.5625C223.271 7.5625 223.849 7.76562 224.734 8.17188L225.453 8.32812H226.625L228.25 8.26562L228.359 8.42188V8.53125C228.359 8.59375 228.156 8.69792 227.75 8.84375C227.75 8.92708 227.547 9.02604 227.141 9.14062L226.312 10.4844L226.375 10.6875L226.266 10.9844V11.1406L226.109 13L226.016 13.0938V13.5L226.156 15.4062L226.422 15.6094V15.7188C226.422 15.7812 226.333 15.8125 226.156 15.8125C225.927 16.3646 225.812 17.151 225.812 18.1719L225.859 19.1406L225.656 21.4531C225.927 22.6198 226.146 23.2031 226.312 23.2031L226.578 23.5156V23.6094L226.469 23.7188H226.016L225.391 23.875H224.734C224.63 23.75 224.323 23.6615 223.812 23.6094L223.562 23.5625L223.5 23.5156V23.4531C224.083 22.8594 224.375 22.2135 224.375 21.5156L224.531 20.9375L224.484 20.0781L224.531 19.7656L224.484 19.3594L224.625 18.0781L224.422 17.0938L224.266 16.8906L224.219 16.8438H224.172L224.375 16.5312V16.1719L224.266 16.0781H223.812C221.677 16.3594 220.536 16.6823 220.391 17.0469C219.87 17.2135 219.323 17.5365 218.75 18.0156C218.583 18.2031 218.5 18.6823 218.5 19.4531C218.5 19.6615 218.635 19.849 218.906 20.0156C219.25 20.5573 219.661 20.9531 220.141 21.2031C221.526 21.9219 222.292 22.2812 222.438 22.2812H222.844C223.562 22.2812 223.922 22.0052 223.922 21.4531V21.4062C223.755 21.1667 223.568 21.0469 223.359 21.0469H223.297C223.12 21.1302 222.984 21.2656 222.891 21.4531V21.5156L223.094 21.7656H223.203C223.276 21.7448 223.344 21.6615 223.406 21.5156L223.25 21.4531V21.3594H223.297L223.5 21.5625C223.5 21.75 223.385 21.9219 223.156 22.0781C222.792 22.0781 222.583 21.8385 222.531 21.3594C222.531 20.9844 222.839 20.7969 223.453 20.7969C223.797 20.7969 224.052 21.0521 224.219 21.5625C224.219 21.9896 224.068 22.2812 223.766 22.4375C223.161 23.0104 222.599 23.2969 222.078 23.2969C220.766 22.7865 220.031 22.5312 219.875 22.5312C219.062 22.2812 218.453 21.7865 218.047 21.0469C217.807 21.0469 217.5 20.6354 217.125 19.8125L216.969 18.7969C216.969 17.849 217.208 17.2969 217.688 17.1406C217.823 16.7656 218.026 16.5781 218.297 16.5781C218.589 16.3385 219.135 16 219.938 15.5625C220.396 15.3854 221.141 15.2448 222.172 15.1406C223.641 15.0052 224.375 14.8698 224.375 14.7344H224.484V14.6875C224.484 13.9271 224.448 13.4323 224.375 13.2031L224.422 13L224.375 12.7812C224.479 12.7812 224.531 12.5938 224.531 12.2188V12.0625C224.469 10.9375 224.401 10.375 224.328 10.375L224.375 10.2188C224.375 9.97917 224.224 9.64062 223.922 9.20312C223.505 8.27604 223.109 7.8125 222.734 7.8125L222.594 7.60938L222.641 7.5625H223ZM225.047 7.8125H225.188V7.92188H225.047V7.8125ZM232.766 10.5625H232.828C233.068 10.5625 233.302 10.7292 233.531 11.0625C233.74 11.1146 234.344 11.6615 235.344 12.7031L236.344 13.9531L236.641 14.9688V15.1562C236.589 15.625 236.354 16.1458 235.938 16.7188C235.427 17.8125 234.958 18.3594 234.531 18.3594L234.359 18.4219C233.484 18.4219 232.193 17.8958 230.484 16.8438C230.214 16.5625 230.078 16.2708 230.078 15.9688V15.8438C230.255 15.1667 230.682 14.8281 231.359 14.8281H231.422C231.734 14.8281 231.891 15.0208 231.891 15.4062C231.786 15.7812 231.688 15.9688 231.594 15.9688H231.25L231.016 15.7188V15.5938L231.125 15.4688C231.125 15.6354 231.167 15.7188 231.25 15.7188L231.422 15.5312V15.3438C231.38 15.2188 231.266 15.1562 231.078 15.1562C230.891 15.1562 230.75 15.3646 230.656 15.7812C230.656 16.1042 231.146 16.4375 232.125 16.7812C232.604 17.1458 233.208 17.375 233.938 17.4688C234.5 17.4688 234.99 17.0521 235.406 16.2188L235.531 16.0938V15.2188C235.375 14.2188 235.12 13.526 234.766 13.1406C233.932 12.474 233.422 12.1406 233.234 12.1406H232.891C232.661 12.1406 232.229 12.4531 231.594 13.0781C231.219 13.1615 230.693 13.9583 230.016 15.4688L229.484 16.8438V17.2812L230.312 19.3594C230.5 20.224 230.99 20.9531 231.781 21.5469C232.635 22.1406 233.182 22.4375 233.422 22.4375L234.297 22.5C234.682 22.5 235.052 22.25 235.406 21.75V21.1719L235.531 20.9844L235.062 19.1094C235.062 19.0156 235.234 18.9531 235.578 18.9219C235.995 19.0781 236.271 19.2656 236.406 19.4844V20.4844C236.406 21.4635 236.073 22.2396 235.406 22.8125C234.833 23.375 234.406 23.7292 234.125 23.875H234C232.76 23.5 232.057 23.1667 231.891 22.875C231.63 22.7917 231.375 22.5625 231.125 22.1875C230.531 21.4688 230.125 21.0469 229.906 20.9219L228.844 19.1719C228.625 19.1719 228.37 18.7292 228.078 17.8438V17.2812L227.906 16.9062L228.969 15.0938C229.01 14.6562 229.495 13.9427 230.422 12.9531C230.422 12.8281 230.99 12.1979 232.125 11.0625L232.766 10.5625ZM230.547 11.9531H230.609L230.422 12.1406V12.0781L230.547 11.9531ZM242 7.9375C242.281 7.9375 242.474 8.17188 242.578 8.64062C242.464 8.98438 242.271 9.15625 242 9.15625H241.812C241.604 9.05208 241.5 8.88021 241.5 8.64062L241.562 8.57812H241.625C241.635 8.79688 241.698 8.90625 241.812 8.90625H241.938L242.125 8.71875V8.57812L241.875 8.32812C241.208 8.32812 240.792 9.27083 240.625 11.1562V11.2188L240.688 11.5469H240.75C241.208 10.7344 241.625 10.3281 242 10.3281L242.375 9.9375L243.641 10.5156C244.057 10.6823 244.266 11.0052 244.266 11.4844C244.516 12.5469 244.766 13.2344 245.016 13.5469C245.016 13.2656 245.182 12.8802 245.516 12.3906L246.594 10.9688C246.854 10.4479 247.271 10.1875 247.844 10.1875L248.156 9.9375H248.531L248.781 10.2656C249.062 10.2656 249.5 10.9271 250.094 12.25L250.469 12.7656V13.6094L250.406 14.5156C250.49 15.1615 250.531 16.0833 250.531 17.2812L251.109 18.7656L251.359 20.7031C251.255 20.7031 251.193 20.7917 251.172 20.9688C251.172 21.4896 251.401 22.151 251.859 22.9531C251.922 23.3802 252.172 23.8542 252.609 24.375L252.484 24.5C251.786 24.1146 251.115 23.9219 250.469 23.9219L250.281 23.9844V23.9219C249.292 24.0573 248.25 24.25 247.156 24.5C247.042 24.5 246.917 24.2865 246.781 23.8594C247.438 23.651 247.833 23.4167 247.969 23.1562C248.24 23.1562 248.406 22.6198 248.469 21.5469L249.031 20.1875L248.969 20C248.969 19.5625 249.115 19.0469 249.406 18.4531L249.469 16.9062V16.25C249.469 16.125 249.365 15.8906 249.156 15.5469C248.865 14.349 248.573 13.6615 248.281 13.4844C247.958 12.5365 247.583 12.0625 247.156 12.0625C247.156 12.4479 246.714 13.4792 245.828 15.1562L245.391 17.5469C245.286 18.2448 245.161 18.6719 245.016 18.8281C244.391 18.8281 244.078 18.7031 244.078 18.4531C243.88 16.026 243.505 14.1979 242.953 12.9688C242.953 12.7188 242.74 12.526 242.312 12.3906H242.062C241.479 12.776 241.062 13.2708 240.812 13.875V14L240.938 14.125L240.625 15.4844L240.438 15.6094L240.5 16.3906L240.312 18.7031C240.219 18.7031 240.156 19.0677 240.125 19.7969L241.25 22.3125L241.188 22.375C241.271 22.3854 241.479 22.6875 241.812 23.2812L242.703 23.9219C242.641 24.099 242.531 24.2292 242.375 24.3125H242.125C241.635 23.9583 241.177 23.7656 240.75 23.7344C239.781 23.7344 238.693 24.0781 237.484 24.7656L237.234 24.4375C237.703 24.1458 238.083 23.6979 238.375 23.0938L239.125 21.2188L239.062 21.1562V21.0938L239.125 21.0312V20.9688L238.938 20.5156V20.1875H238.812V19.6094L239.125 18.7656V17.4219C238.958 17.1406 238.875 16.6458 238.875 15.9375L239.188 15.7969L238.938 14.9688V14.5781H238.812V14.3906L238.875 14.3281C238.698 13.6823 238.193 13.1198 237.359 12.6406C236.651 12.4531 236.297 12.3021 236.297 12.1875V12C236.297 11.9167 236.365 11.875 236.5 11.875L237.359 12.1875H237.734C238.464 12.1875 239.406 11.1354 240.562 9.03125C241.156 8.30208 241.635 7.9375 242 7.9375ZM259.672 7.9375C261.161 8.86458 262.5 9.32812 263.688 9.32812L264.734 9.17188L264.781 9.23438V9.32812C263.927 9.86979 263.479 10.2969 263.438 10.6094C262.979 11.0365 262.75 11.4948 262.75 11.9844C262.479 12.3594 262.182 12.9115 261.859 13.6406C261.755 13.6719 261.62 13.974 261.453 14.5469C261.37 14.5469 261.203 14.7708 260.953 15.2188C260.245 16.1146 259.865 16.6667 259.812 16.875C259.656 16.875 259.557 17.099 259.516 17.5469C259.432 17.5469 259.385 17.7031 259.375 18.0156C259.135 18.151 258.938 18.5469 258.781 19.2031L258.625 19.8281C258.26 20.2969 258.062 20.6458 258.031 20.875L257.781 21.0625L257.828 21.1094V21.2031C257.609 21.3802 257.245 21.8698 256.734 22.6719C256.62 22.6719 256.292 23.2604 255.75 24.4375C255.448 24.9583 254.901 25.5156 254.109 26.1094L253.609 26.5781H253.562L253.516 26.5312L252.078 27.0938C251.932 27.25 251.734 27.3281 251.484 27.3281C251.234 27.5469 250.458 27.7708 249.156 28C249.156 28.0938 248.839 28.1406 248.203 28.1406H247.703C246.776 27.974 246.312 27.7969 246.312 27.6094C245.771 27.1302 245.307 26.4688 244.922 25.625C245.161 25.1042 245.745 24.5052 246.672 23.8281H246.859C247.599 23.8281 248.297 24 248.953 24.3438C249.089 24.5833 249.172 24.8385 249.203 25.1094C249.203 25.901 249.104 26.2969 248.906 26.2969L247.953 27C247.339 26.8438 246.812 26.6406 246.375 26.3906V26.25C246.375 25.1667 246.521 24.625 246.812 24.625L247.656 24.5781H247.953C248.245 24.8698 248.411 25.1875 248.453 25.5312V25.5781L247.469 26.4844L246.812 25.8125C246.927 25.3125 247.109 25.0625 247.359 25.0625H247.766C247.818 25.0625 247.88 25.2031 247.953 25.4844L247.703 25.6719C247.703 25.3906 247.573 25.25 247.312 25.25C247.146 25.4583 247.062 25.6146 247.062 25.7188V25.7656C247.177 25.9219 247.344 26.0365 247.562 26.1094C247.99 25.8385 248.203 25.5677 248.203 25.2969L247.516 24.7656C246.953 24.8698 246.672 25.0781 246.672 25.3906L246.562 25.9531C246.562 26.2656 247.026 26.5052 247.953 26.6719C248.62 26.2552 248.953 25.8906 248.953 25.5781C248.578 24.6927 248.083 24.25 247.469 24.25H246.625C246.062 24.8333 245.781 25.3854 245.781 25.9062C245.958 26.6979 246.188 27.0938 246.469 27.0938C246.531 27.1771 246.797 27.3021 247.266 27.4688C247.901 27.4688 248.51 27.3906 249.094 27.2344C249.229 27.2344 249.297 27.2031 249.297 27.1406L249.641 27.1875H249.703C249.932 27.0417 250.542 26.8073 251.531 26.4844C252.052 26.2344 252.479 25.8542 252.812 25.3438C253.344 25.2188 253.776 24.8854 254.109 24.3438C254.932 23.5938 255.479 22.9115 255.75 22.2969L256.438 21.1562C256.552 21.1562 256.75 20.8073 257.031 20.1094C257.365 19.8906 257.531 19.5104 257.531 18.9688L257.234 18.1562C257.099 18.1562 256.948 17.8125 256.781 17.125C256.656 16.6875 256.411 16.3073 256.047 15.9844C255.745 15.6094 255.594 15.2917 255.594 15.0312L255.203 14.4531C254.536 13.9323 254.203 13.4583 254.203 13.0312L254.062 12.8438L254.109 12.4062C254.005 12.3542 253.87 12.1198 253.703 11.7031C253.307 11.349 252.781 11.0469 252.125 10.7969L252.078 10.75V10.7031L252.172 10.6094H252.422L254.406 10.8906H255C255.281 10.8906 255.958 10.6667 257.031 10.2188H257.141L257.281 10.375C257.281 10.4375 257.182 10.4844 256.984 10.5156C256.557 10.7656 256.344 11.2083 256.344 11.8438C256.26 11.8438 256.208 11.9062 256.188 12.0312C256.188 12.3438 256.339 12.9167 256.641 13.75L256.891 14.2656V14.6875C256.891 15 257.073 15.4323 257.438 15.9844C257.438 16.4844 257.703 16.9115 258.234 17.2656H258.328C258.474 17.2656 258.641 16.8177 258.828 15.9219C258.828 15.6302 258.99 15.3177 259.312 14.9844C259.479 14.4948 259.698 14 259.969 13.5L260.062 12.9375V12.2656C260.24 12.1615 260.391 11.7969 260.516 11.1719L260.609 11.0781V10.2656L260.562 9.32812C260.01 8.94271 259.594 8.75 259.312 8.75V8.32812C259.427 8.14062 259.547 8.01042 259.672 7.9375ZM247.312 25.4375C247.323 25.6562 247.422 25.7656 247.609 25.7656L247.516 25.8594C247.38 25.8177 247.281 25.7396 247.219 25.625V25.5312L247.312 25.4375Z" fill="black"/>
</svg>
